<svg xmlns="http://www.w3.org/2000/svg" viewBox="0 0 500 372.61"><defs><style>.cls-1{fill:#ebebeb;}.cls-2{fill:#e0e0e0;}.cls-3{fill:#fafafa;}.cls-4{fill:#f0f0f0;}.cls-5{fill:#f5f5f5;}.cls-6{fill:#ebb376;}.cls-10,.cls-22,.cls-7{opacity:0.2;}.cls-8{fill:#407bff;}.cls-9{opacity:0.4;}.cls-10{isolation:isolate;}.cls-11{fill:#263238;}.cls-12,.cls-17,.cls-18,.cls-20,.cls-21{fill:none;}.cls-12,.cls-17,.cls-18{stroke:#263238;}.cls-12,.cls-18,.cls-21{stroke-linecap:round;stroke-linejoin:round;}.cls-12{stroke-width:0.61px;}.cls-13,.cls-14,.cls-15,.cls-23{fill:#fff;}.cls-13{opacity:0.6;}.cls-14,.cls-16{opacity:0.3;}.cls-15{opacity:0.1;}.cls-17,.cls-20{stroke-miterlimit:10;}.cls-17,.cls-18,.cls-20,.cls-21{stroke-width:1.07px;}.cls-19{opacity:0.5;}.cls-20,.cls-21{stroke:#000;}</style></defs><title>Asset 1</title><g id="Layer_2" data-name="Layer 2"><g id="Background_Complete" data-name="Background Complete"><rect class="cls-1" y="327.45" width="500" height="0.25"/><rect class="cls-1" x="416.78" y="343.54" width="33.12" height="0.25"/><rect class="cls-1" x="322.53" y="346.26" width="8.69" height="0.25"/><rect class="cls-1" x="396.59" y="334.26" width="19.19" height="0.25"/><rect class="cls-1" x="52.46" y="335.94" width="43.19" height="0.25"/><rect class="cls-1" x="104.56" y="335.94" width="6.33" height="0.25"/><rect class="cls-1" x="131.47" y="340.16" width="93.68" height="0.25"/><path class="cls-1" d="M237,282.85H43.91a5.71,5.71,0,0,1-5.7-5.71V5.71A5.71,5.71,0,0,1,43.91,0H237a5.71,5.71,0,0,1,5.71,5.71V277.14A5.71,5.71,0,0,1,237,282.85ZM43.91.25a5.46,5.46,0,0,0-5.45,5.46V277.14a5.46,5.46,0,0,0,5.45,5.46H237a5.47,5.47,0,0,0,5.46-5.46V5.71A5.47,5.47,0,0,0,237,.25Z"/><path class="cls-1" d="M453.31,282.85H260.21a5.72,5.72,0,0,1-5.71-5.71V5.71A5.72,5.72,0,0,1,260.21,0h193.1A5.71,5.71,0,0,1,459,5.71V277.14A5.71,5.71,0,0,1,453.31,282.85ZM260.21.25a5.47,5.47,0,0,0-5.46,5.46V277.14a5.47,5.47,0,0,0,5.46,5.46h193.1a5.47,5.47,0,0,0,5.46-5.46V5.71A5.47,5.47,0,0,0,453.31.25Z"/><path class="cls-2" d="M327.59,183a21.78,21.78,0,1,0-37.35,0Z"/><path class="cls-1" d="M315.54,151.05A21.76,21.76,0,0,0,290.24,183h30.91a24.68,24.68,0,0,0-5.61-31.92Z"/><rect class="cls-3" x="84.94" y="182.96" width="330.12" height="85.74"/><path class="cls-4" d="M415.06,233.61c-54.79,1-88.66,18.69-130.88,18.69-55.65,0-73.54-17.75-130.65-17.75-32.62,0-50.36,8.64-68.59,16v18.09H415.06Z"/><path class="cls-5" d="M406.24,138.36c-3.05-.13-6,1.75-9,1.39-5.51-.65-8.75-8.23-14.27-7.7-4.43.43-7.18,6.39-11.61,6-4.74-.37-7.87-11.91-15.66-11.06-4.49.48-4.21,7.83-8.09,10.13-3.12,1.84-6.16-.1-11.27.89-9.26,1.8-10,7.54-10,7.54h86.48A7.16,7.16,0,0,0,406.24,138.36Z"/><path class="cls-5" d="M368.63,96.94c-6.17-1.42-13.22,3-18.67-.18-6.78-4-6.29-16.86-14.13-17.71-13.63-1.49-19.08,18.67-27.37,19.33-7.74.61-12.55-9.81-20.29-10.55-9.64-.93-15.31,12.32-24.93,13.45-5.3.63-10.4-2.57-15.74-2.33a12.4,12.4,0,0,0-11.43,12.72h151S376.9,98.85,368.63,96.94Z"/><path class="cls-5" d="M189.69,98.13c-7.23-4.2-13.75-2.71-20.77-1.4s-7.79-8.12-16.1-12.18c-11.6-5.66-18.66,6.52-21.63,11.5s-10.46,2.25-17.83,3.58c-10.21,1.84-10.56,12.49-10.56,12.49h94.85S197.46,102.64,189.69,98.13Z"/><path class="cls-4" d="M266.75,197.83h-17.9a.69.69,0,1,1,0-1.37h17.9a.69.69,0,0,1,0,1.37Z"/><path class="cls-4" d="M212.79,197.83h-17.9a.69.69,0,1,1,0-1.37h17.9a.69.69,0,0,1,0,1.37Z"/><path class="cls-4" d="M282.34,211H261.71a1.37,1.37,0,1,1,0-2.73h20.63a1.37,1.37,0,1,1,0,2.73Z"/><path class="cls-4" d="M397.2,214.44H383.25a1.14,1.14,0,1,1,0-2.27H397.2a1.14,1.14,0,1,1,0,2.27Z"/><path class="cls-4" d="M365.2,193.5H344.56a.91.91,0,0,1,0-1.82H365.2a.91.91,0,1,1,0,1.82Z"/><path class="cls-4" d="M321.23,225.83h-12a1.37,1.37,0,0,1,0-2.74h12a1.37,1.37,0,0,1,0,2.74Z"/><path class="cls-4" d="M373.09,198.23H352.45a.69.69,0,0,1,0-1.37h20.64a.69.69,0,0,1,0,1.37Z"/><path class="cls-4" d="M332.3,212.17H301.42a.91.91,0,1,1,0-1.82H332.3a.91.91,0,1,1,0,1.82Z"/><path class="cls-4" d="M344.56,209H336a.91.91,0,1,1,0-1.82h8.61a.91.91,0,1,1,0,1.82Z"/><path class="cls-4" d="M397.43,194.87h-8.61a.91.91,0,1,1,0-1.82h8.61a.91.91,0,0,1,0,1.82Z"/><path class="cls-4" d="M297.71,221.27H280.56a.91.91,0,1,1,0-1.82h17.15a.91.91,0,1,1,0,1.82Z"/><path class="cls-4" d="M238.38,191.68H221.23a.91.91,0,0,1,0-1.82h17.15a.91.91,0,0,1,0,1.82Z"/><path class="cls-4" d="M349,204.24h-6.22a.69.69,0,1,1,0-1.37H349a.69.69,0,0,1,0,1.37Z"/><path class="cls-4" d="M390.53,204.24h-6.22a.69.69,0,0,1,0-1.37h6.22a.69.69,0,1,1,0,1.37Z"/><path class="cls-4" d="M227,209.89H215.46a.91.91,0,0,1,0-1.82H227a.91.91,0,0,1,0,1.82Z"/><path class="cls-4" d="M195.4,192.59H183.87a.91.91,0,0,1,0-1.82H195.4a.91.91,0,1,1,0,1.82Z"/><path class="cls-4" d="M370.39,209.66H359a.68.68,0,0,1,0-1.36h11.42a.68.68,0,1,1,0,1.36Z"/><path class="cls-4" d="M314.6,203.51a1.2,1.2,0,0,1,1.21-1.2h6.67a.56.56,0,0,0,.44-.22.68.68,0,0,0,.12-.52.61.61,0,0,0-.61-.51H312.12a1,1,0,0,1-.05-1.91h16.1a1,1,0,0,0,.76-.36,1.19,1.19,0,0,0,.24-.92,1.09,1.09,0,0,0-1.1-.92h-9.69a1.18,1.18,0,0,1-.07-2.35h17.94a.56.56,0,0,0,.46-.23.69.69,0,0,0,.14-.54.66.66,0,0,0-.65-.55H311.48a1.26,1.26,0,0,1-1-.49,1.52,1.52,0,0,1-.29-1.14,1.36,1.36,0,0,1,1.32-1.16h22.28a1.11,1.11,0,0,0,.84-.39,1.27,1.27,0,0,0,.31-.92,1.25,1.25,0,0,0-1.23-1.18H320.54a1.18,1.18,0,0,1-.06-2.35h8.11a1.35,1.35,0,0,0,0-2.69H288.7a.73.73,0,0,0,0,1.46h6.38a.81.81,0,0,1,.58.8.79.79,0,0,1-.75.82H275a.69.69,0,0,0,0,1.37h27.86a1.24,1.24,0,0,1,1,.49,1.48,1.48,0,0,1,.29,1.14,1.36,1.36,0,0,1-1.32,1.16H272.76a1.11,1.11,0,0,0-.84.39,1.27,1.27,0,0,0-.31.92,1.25,1.25,0,0,0,1.23,1.18H298a1.18,1.18,0,0,1,.06,2.35H277.22a.86.86,0,0,0-.65.31,1,1,0,0,0-.21.81,1,1,0,0,0,1,.79H293a1.27,1.27,0,0,1,1,.49,1.46,1.46,0,0,1,.28,1.13,1.34,1.34,0,0,1-1.32,1.17H280.4a.86.86,0,0,0-.65.31,1,1,0,0,0-.21.8,1,1,0,0,0,1,.79h23.86a1,1,0,0,1,.05,1.91H294a1.39,1.39,0,0,0-1.08.51,1.65,1.65,0,0,0-.41,1.19,1.61,1.61,0,0,0,1.59,1.53h32.72a1,1,0,0,0,1-1h0a1,1,0,0,0-1-1h-11a1.21,1.21,0,0,1-1.21-1.2Z"/></g><g id="Shadow"><ellipse id="_Path_" data-name="&lt;Path&gt;" class="cls-5" cx="250" cy="361.29" rx="193.89" ry="11.32"/></g><g id="Character"><path class="cls-6" d="M122.12,198.45s-16.94,31.23-1.59,39.34l10.76-37.09Z"/><path class="cls-7" d="M122.12,198.45s-16.94,31.23-1.59,39.34l10.76-37.09Z"/><path class="cls-8" d="M138.49,175.41s-12.34,7.08-19,24.17a135.32,135.32,0,0,0,17.34,5.09S143.2,187.41,138.49,175.41Z"/><path class="cls-9" d="M138.49,175.41s-12.34,7.08-19,24.17a135.32,135.32,0,0,0,17.34,5.09S143.2,187.41,138.49,175.41Z"/><path class="cls-6" d="M170.48,155.24a2.55,2.55,0,0,0,.24.31,14.51,14.51,0,0,0,4.22,3.73c4.83,2.61,8.55,2.88,11.49,1.18h0c4.18-2.61,6.7-8.58,8.31-16.19a29.16,29.16,0,0,0,.78-9.18s0-.11,0-.14,0-.25,0-.35a10.6,10.6,0,0,0-5.78-8.3,21.52,21.52,0,0,0-4.29-1.72C170.9,120.41,161.61,143.83,170.48,155.24Z"/><path class="cls-10" d="M170.72,155.55a14.18,14.18,0,0,0,4.28,3.53c4.83,2.61,8.59,2.71,11.54,1a15.08,15.08,0,0,1-9-3.31C175.68,155.21,173.22,155.06,170.72,155.55Z"/><path class="cls-6" d="M162.29,166.5c-2.82,3.39,4.47,7.93,4.47,7.93,9.92.28,13.48-3.42,13.48-3.42-5.25-6.79,1.45-16.07,1.45-16.07L180,155l-13-3.14S166.67,161.22,162.29,166.5Z"/><path class="cls-11" d="M195.56,135s-2,10.44-12.92,12.16c0,0-7.09,9.47-13.26,7.93-8.41-2.1-12.49-16-6.25-27.32C171.21,113.12,195.34,118.4,195.56,135Z"/><path class="cls-11" d="M182.54,118.59s17.09,0,16.2,11.69c-1.24,16.21-16.25,13.55-16.25,13.55S183,157,169.38,155.09C146.56,151.89,156.28,104.65,182.54,118.59Z"/><path class="cls-6" d="M188.36,145.58c.43-1.6-.11-4.63-2.69-5s-5.84,5.6.08,8.75C186.6,149.84,187.45,148.91,188.36,145.58Z"/><path class="cls-12" d="M180.63,119.38s12.87-3.5,17.94,4.75c3.63,5.9-.21,12.64-.21,12.64"/><path class="cls-6" d="M216,210.85c-6.11,2.86-8,4.37-14.38,6.57,1.39,4,4.57,13.76,3.72,14.66-2.37,2.53-20.48,1.4-20.48,1.4l-3.16,11.34a212.11,212.11,0,0,0,25.44-.37c11.19-1.06,15.2-.41,12.24-18.3C218.81,222.55,216.88,214.23,216,210.85Z"/><path class="cls-8" d="M200,219.39a192.88,192.88,0,0,0,18.68-8A97.39,97.39,0,0,0,204.78,182s-14.41,4.9-12.63,14.71C193.24,202.7,197.46,212.26,200,219.39Z"/><path class="cls-7" d="M200,219.39a192.88,192.88,0,0,0,18.68-8A97.39,97.39,0,0,0,204.78,182s-14.41,4.9-12.63,14.71C193.24,202.7,197.46,212.26,200,219.39Z"/><path class="cls-8" d="M141.92,328.82a77.36,77.36,0,0,0,17.7,0s8.08-42.93,6.32-52.16H143.21S141.92,317.23,141.92,328.82Z"/><path class="cls-13" d="M141.92,328.82a77.36,77.36,0,0,0,17.7,0s8.08-42.93,6.32-52.16H143.21S141.92,317.23,141.92,328.82Z"/><path class="cls-8" d="M208.84,327.49l17.43.21c2.32-10.48,11.59-62.79,3.06-79,0,0-3.05-6.66-20-4.1s-40.6,8.8-58,11.87a90.78,90.78,0,0,1-31.22.17s-7.67,26.11,12.13,30,71.93.34,76.38-1.87C212.38,282.93,209.72,317.19,208.84,327.49Z"/><path class="cls-13" d="M208.84,327.49l17.43.21c2.32-10.48,11.59-62.79,3.06-79,0,0-3.05-6.66-20-4.1s-40.6,8.8-58,11.87a90.78,90.78,0,0,1-31.22.17s-7.67,26.11,12.13,30,71.93.34,76.38-1.87C212.38,282.93,209.72,317.19,208.84,327.49Z"/><polygon class="cls-6" points="211.95 325.57 210.8 345.01 220.15 343.73 221.21 325.57 211.95 325.57"/><polygon class="cls-10" points="211.95 325.57 211.38 335.04 220.7 334.23 221.21 325.57 211.95 325.57"/><polygon class="cls-8" points="207.57 330.87 228.26 332.23 230.03 323.37 207.3 322.32 207.57 330.87"/><polygon class="cls-14" points="207.57 330.87 228.26 332.23 230.03 323.37 207.3 322.32 207.57 330.87"/><path class="cls-8" d="M221.08,343.76l.2,0s.21.07.23.09,0,.05,0,.07h.08a11.51,11.51,0,0,0,2.46.48,2.45,2.45,0,0,0,1.79-.35,1.18,1.18,0,0,0,.35-1.2.85.85,0,0,0-.48-.66,3.84,3.84,0,0,0-2.61.48,3.38,3.38,0,0,0,.93-2.15.9.9,0,0,0-.8-.72,1.4,1.4,0,0,0-1.05.25c-1,.85-1.14,3.51-1.14,3.68h0Zm1-.55-.19.11c0-.89.2-2.38.79-2.88a.59.59,0,0,1,.48-.17h.11c.31.06.39.21.4.34A4.48,4.48,0,0,1,222.09,343.21Zm.14.47c1.13-.63,2.75-1.32,3.35-1a.41.41,0,0,1,.23.32.81.81,0,0,1-.21.77C225.13,344.14,223.89,344.11,222.23,343.68Z"/><path class="cls-11" d="M220.85,342.61,210.29,342a.66.66,0,0,0-.73.59h0l-1,8.33a1.67,1.67,0,0,0,1.54,1.77c3.69.17,5.46.06,10.11.32,2.85.17,8.47.77,12.41.39s3.45-4.26,1.75-4.44c-4-.46-9.37-3.42-11.89-5.67A2.58,2.58,0,0,0,220.85,342.61Z"/><polygon class="cls-6" points="145.29 325.57 144.15 345.01 153.49 343.73 154.55 325.57 145.29 325.57"/><polygon class="cls-10" points="145.29 325.57 144.73 335.04 154.05 334.23 154.56 325.57 145.29 325.57"/><polygon class="cls-8" points="140.92 330.87 161.6 332.23 163.37 323.37 140.65 322.32 140.92 330.87"/><polygon class="cls-14" points="140.92 330.87 161.6 332.23 163.37 323.37 140.65 322.32 140.92 330.87"/><path class="cls-8" d="M154.43,343.76l.19,0s.21.07.24.09,0,.05,0,.07H155a11.39,11.39,0,0,0,2.46.48,2.45,2.45,0,0,0,1.79-.35,1.15,1.15,0,0,0,.34-1.2.82.82,0,0,0-.47-.66,3.84,3.84,0,0,0-2.61.48,3.38,3.38,0,0,0,.93-2.15.9.9,0,0,0-.81-.72,1.38,1.38,0,0,0-1,.25c-1,.85-1.14,3.51-1.14,3.68h0Zm1-.55-.2.11c0-.89.21-2.38.8-2.88a.58.58,0,0,1,.48-.17h.11c.31.06.38.21.39.34A4.41,4.41,0,0,1,155.44,343.21Zm.13.47c1.14-.63,2.75-1.32,3.35-1a.39.39,0,0,1,.23.32.8.8,0,0,1-.2.77C158.47,344.14,157.24,344.11,155.57,343.68Z"/><path class="cls-11" d="M154.2,342.61,143.64,342a.67.67,0,0,0-.74.59h0l-1,8.33a1.67,1.67,0,0,0,1.54,1.77c3.68.17,5.45.06,10.1.32,2.85.17,8.48.77,12.41.39s3.45-4.26,1.76-4.44c-4-.46-9.37-3.42-11.9-5.67A2.58,2.58,0,0,0,154.2,342.61Z"/><path class="cls-8" d="M159.39,167.75s-17.65,2.88-22.45,9.25-28.07,76.77-16.86,79.66c14.4,3.72,61.37,6,65.08-3.15s10.37-45.22,19-60.24c2.91-5.08,3.12-8.19.65-11.26-5.42-6.75-20.33-10.22-23.45-12.32l.18-3.78c-4-.72-11.6-2.1-19.09-3.64Z"/><path class="cls-7" d="M160,166.71a2.45,2.45,0,0,1-1.71,1.24c-4,.76-17.26,3.65-21.32,9.05-4.8,6.38-28.07,76.77-16.86,79.66,14.4,3.72,61.37,6,65.08-3.15s10.37-45.22,19-60.24c2.91-5.08,3.12-8.19.65-11.26-4.79-6-17-9.36-21.91-11.52a2.47,2.47,0,0,1-1.47-2.39h0a2.48,2.48,0,0,0-2-2.58c-3.85-.69-9.44-1.73-15.15-2.89a2.51,2.51,0,0,0-2.68,1.24Z"/><path class="cls-11" d="M82.08,33.94h0a11.89,11.89,0,0,0-11.9,11.89V361.29H94V45.83A11.89,11.89,0,0,0,82.08,33.94Z"/><path class="cls-15" d="M82.08,33.94h0a11.89,11.89,0,0,0-11.9,11.89V361.29H94V45.83A11.89,11.89,0,0,0,82.08,33.94Z"/><path class="cls-16" d="M90.09,49.14a5.57,5.57,0,1,1-5.56-5.56A5.56,5.56,0,0,1,90.09,49.14Z"/><path class="cls-17" d="M275.05,293.27c0-1.08.66-2,1.47-2s1.47.88,1.47,2-.66,2-1.47,2S275.05,294.35,275.05,293.27Z"/><line class="cls-18" x1="276.52" y1="292.02" x2="276.52" y2="287.76"/><path class="cls-17" d="M275.05,286.87c0-1.08.66-2,1.47-2s1.47.88,1.47,2-.66,1.95-1.47,1.95S275.05,288,275.05,286.87Z"/><line class="cls-18" x1="276.52" y1="285.62" x2="276.52" y2="281.36"/><path class="cls-17" d="M275.05,280.47c0-1.08.66-2,1.47-2s1.47.88,1.47,2-.66,1.95-1.47,1.95S275.05,281.55,275.05,280.47Z"/><line class="cls-18" x1="276.52" y1="279.22" x2="276.52" y2="274.96"/><path class="cls-17" d="M275.05,274.07c0-1.08.66-2,1.47-2s1.47.88,1.47,2-.66,1.95-1.47,1.95S275.05,275.15,275.05,274.07Z"/><line class="cls-18" x1="276.52" y1="272.82" x2="276.52" y2="268.56"/><path class="cls-17" d="M275.05,267.67c0-1.08.66-2,1.47-2s1.47.88,1.47,2-.66,2-1.47,2S275.05,268.75,275.05,267.67Z"/><line class="cls-18" x1="276.52" y1="266.43" x2="276.52" y2="262.16"/><path class="cls-17" d="M275.05,261.27c0-1.08.66-2,1.47-2s1.47.88,1.47,2-.66,2-1.47,2S275.05,262.35,275.05,261.27Z"/><line class="cls-18" x1="276.52" y1="260.03" x2="276.52" y2="255.76"/><ellipse class="cls-17" cx="276.52" cy="254.87" rx="1.47" ry="1.96"/><line class="cls-18" x1="276.52" y1="253.63" x2="276.52" y2="249.36"/><ellipse class="cls-17" cx="276.52" cy="248.47" rx="1.47" ry="1.96"/><line class="cls-18" x1="276.52" y1="247.23" x2="276.52" y2="242.96"/><ellipse class="cls-17" cx="276.52" cy="242.07" rx="1.47" ry="1.96"/><line class="cls-18" x1="276.52" y1="240.83" x2="276.52" y2="236.56"/><ellipse class="cls-17" cx="276.52" cy="235.67" rx="1.47" ry="1.96"/><line class="cls-18" x1="276.52" y1="234.43" x2="276.52" y2="230.16"/><ellipse class="cls-17" cx="276.52" cy="229.27" rx="1.47" ry="1.96"/><line class="cls-18" x1="276.52" y1="228.03" x2="276.52" y2="223.76"/><ellipse class="cls-17" cx="276.52" cy="222.87" rx="1.47" ry="1.96"/><line class="cls-18" x1="276.52" y1="221.63" x2="276.52" y2="217.36"/><ellipse class="cls-17" cx="276.52" cy="216.47" rx="1.47" ry="1.96"/><line class="cls-18" x1="276.52" y1="215.23" x2="276.52" y2="210.96"/><path class="cls-17" d="M275.05,210.07c0-1.08.66-1.95,1.47-1.95s1.47.87,1.47,1.95-.66,2-1.47,2S275.05,211.15,275.05,210.07Z"/><line class="cls-18" x1="276.52" y1="208.83" x2="276.52" y2="204.56"/><path class="cls-17" d="M275.05,203.67c0-1.08.66-1.95,1.47-1.95s1.47.87,1.47,1.95-.66,2-1.47,2S275.05,204.75,275.05,203.67Z"/><line class="cls-18" x1="276.52" y1="202.43" x2="276.52" y2="198.16"/><path class="cls-17" d="M275.05,197.27c0-1.08.66-2,1.47-2s1.47.87,1.47,2-.66,2-1.47,2S275.05,198.35,275.05,197.27Z"/><line class="cls-18" x1="276.52" y1="196.03" x2="276.52" y2="191.76"/><path class="cls-17" d="M275.05,190.87c0-1.08.66-2,1.47-2s1.47.87,1.47,2-.66,2-1.47,2S275.05,192,275.05,190.87Z"/><line class="cls-18" x1="276.52" y1="189.63" x2="276.52" y2="185.36"/><path class="cls-17" d="M275.05,184.47c0-1.08.66-1.95,1.47-1.95s1.47.87,1.47,1.95-.66,2-1.47,2S275.05,185.55,275.05,184.47Z"/><line class="cls-18" x1="276.52" y1="183.23" x2="276.52" y2="178.96"/><path class="cls-17" d="M275.05,178.07c0-1.08.66-1.95,1.47-1.95s1.47.87,1.47,1.95-.66,2-1.47,2S275.05,179.15,275.05,178.07Z"/><line class="cls-18" x1="276.52" y1="176.83" x2="276.52" y2="172.56"/><path class="cls-17" d="M275.05,171.12c0-1.08.66-2,1.47-2s1.47.88,1.47,2-.66,1.95-1.47,1.95S275.05,172.2,275.05,171.12Z"/><line class="cls-18" x1="276.52" y1="169.87" x2="276.52" y2="165.61"/><path class="cls-17" d="M275.05,164.72c0-1.08.66-2,1.47-2s1.47.88,1.47,2-.66,1.95-1.47,1.95S275.05,165.8,275.05,164.72Z"/><line class="cls-18" x1="276.52" y1="163.47" x2="276.52" y2="159.21"/><path class="cls-17" d="M275.05,158.32c0-1.08.66-2,1.47-2s1.47.88,1.47,2-.66,2-1.47,2S275.05,159.4,275.05,158.32Z"/><line class="cls-18" x1="276.52" y1="157.07" x2="276.52" y2="152.81"/><path class="cls-17" d="M275.05,151.92c0-1.08.66-2,1.47-2s1.47.88,1.47,2-.66,2-1.47,2S275.05,153,275.05,151.92Z"/><line class="cls-18" x1="276.52" y1="150.68" x2="276.52" y2="146.41"/><path class="cls-17" d="M275.05,145.52c0-1.08.66-2,1.47-2s1.47.88,1.47,2-.66,2-1.47,2S275.05,146.6,275.05,145.52Z"/><line class="cls-18" x1="276.52" y1="144.28" x2="276.52" y2="140.01"/><path class="cls-17" d="M275.05,139.12c0-1.08.66-2,1.47-2s1.47.88,1.47,2-.66,2-1.47,2S275.05,140.2,275.05,139.12Z"/><line class="cls-18" x1="276.52" y1="137.88" x2="276.52" y2="133.61"/><path class="cls-17" d="M275.05,132.72c0-1.08.66-2,1.47-2s1.47.88,1.47,2-.66,2-1.47,2S275.05,133.8,275.05,132.72Z"/><line class="cls-18" x1="276.52" y1="131.48" x2="276.52" y2="127.21"/><path class="cls-17" d="M275.05,126.32c0-1.08.66-2,1.47-2s1.47.88,1.47,2-.66,2-1.47,2S275.05,127.4,275.05,126.32Z"/><line class="cls-18" x1="276.52" y1="125.08" x2="276.52" y2="120.81"/><path class="cls-17" d="M275.05,119.92c0-1.08.66-2,1.47-2s1.47.88,1.47,2-.66,2-1.47,2S275.05,121,275.05,119.92Z"/><line class="cls-18" x1="276.52" y1="118.68" x2="276.52" y2="114.41"/><path class="cls-17" d="M275.05,113.52c0-1.08.66-2,1.47-2s1.47.88,1.47,2-.66,2-1.47,2S275.05,114.6,275.05,113.52Z"/><line class="cls-18" x1="276.52" y1="112.28" x2="276.52" y2="108.01"/><path class="cls-17" d="M275.05,107.12c0-1.08.66-2,1.47-2s1.47.88,1.47,2-.66,2-1.47,2S275.05,108.2,275.05,107.12Z"/><line class="cls-18" x1="276.52" y1="105.88" x2="276.52" y2="101.61"/><path class="cls-17" d="M275.05,100.72c0-1.08.66-2,1.47-2s1.47.88,1.47,2-.66,2-1.47,2S275.05,101.8,275.05,100.72Z"/><line class="cls-18" x1="276.52" y1="99.48" x2="276.52" y2="95.21"/><path class="cls-17" d="M275.05,94.32c0-1.08.66-1.95,1.47-1.95s1.47.87,1.47,1.95-.66,2-1.47,2S275.05,95.4,275.05,94.32Z"/><line class="cls-18" x1="276.52" y1="93.08" x2="276.52" y2="88.81"/><path class="cls-17" d="M275.05,87.92c0-1.08.66-2,1.47-2s1.47.87,1.47,2-.66,2-1.47,2S275.05,89,275.05,87.92Z"/><line class="cls-18" x1="276.52" y1="86.68" x2="276.52" y2="82.41"/><path class="cls-17" d="M275.05,81.52c0-1.08.66-2,1.47-2s1.47.87,1.47,2-.66,2-1.47,2S275.05,82.6,275.05,81.52Z"/><line class="cls-18" x1="276.52" y1="80.28" x2="276.52" y2="76.01"/><path class="cls-17" d="M275.05,75.12c0-1.08.66-2,1.47-2s1.47.87,1.47,2-.66,2-1.47,2S275.05,76.2,275.05,75.12Z"/><line class="cls-18" x1="276.52" y1="73.88" x2="276.52" y2="69.61"/><path class="cls-17" d="M275.05,68.72c0-1.08.66-2,1.47-2s1.47.87,1.47,2-.66,2-1.47,2S275.05,69.8,275.05,68.72Z"/><line class="cls-18" x1="276.52" y1="67.48" x2="276.52" y2="63.21"/><path class="cls-17" d="M275.05,62.32c0-1.08.66-2,1.47-2s1.47.87,1.47,2-.66,2-1.47,2S275.05,63.4,275.05,62.32Z"/><line class="cls-18" x1="276.52" y1="61.08" x2="276.52" y2="56.81"/><path class="cls-17" d="M275.05,55.92c0-1.08.66-2,1.47-2s1.47.87,1.47,2-.66,2-1.47,2S275.05,57,275.05,55.92Z"/><line class="cls-18" x1="276.52" y1="54.68" x2="276.52" y2="50.41"/><g class="cls-19"><path class="cls-20" d="M275.05,293.27c0-1.08.66-2,1.47-2s1.47.88,1.47,2-.66,2-1.47,2S275.05,294.35,275.05,293.27Z"/><line class="cls-21" x1="276.52" y1="292.02" x2="276.52" y2="287.76"/><path class="cls-20" d="M275.05,286.87c0-1.08.66-2,1.47-2s1.47.88,1.47,2-.66,1.95-1.47,1.95S275.05,288,275.05,286.87Z"/><line class="cls-21" x1="276.52" y1="285.62" x2="276.52" y2="281.36"/><path class="cls-20" d="M275.05,280.47c0-1.08.66-2,1.47-2s1.47.88,1.47,2-.66,1.95-1.47,1.95S275.05,281.55,275.05,280.47Z"/><line class="cls-21" x1="276.52" y1="279.22" x2="276.52" y2="274.96"/><path class="cls-20" d="M275.05,274.07c0-1.08.66-2,1.47-2s1.47.88,1.47,2-.66,1.95-1.47,1.95S275.05,275.15,275.05,274.07Z"/><line class="cls-21" x1="276.52" y1="272.82" x2="276.52" y2="268.56"/><path class="cls-20" d="M275.05,267.67c0-1.08.66-2,1.47-2s1.47.88,1.47,2-.66,2-1.47,2S275.05,268.75,275.05,267.67Z"/><line class="cls-21" x1="276.52" y1="266.43" x2="276.52" y2="262.16"/><path class="cls-20" d="M275.05,261.27c0-1.08.66-2,1.47-2s1.47.88,1.47,2-.66,2-1.47,2S275.05,262.35,275.05,261.27Z"/><line class="cls-21" x1="276.52" y1="260.03" x2="276.52" y2="255.76"/><ellipse class="cls-20" cx="276.52" cy="254.87" rx="1.47" ry="1.96"/><line class="cls-21" x1="276.52" y1="253.63" x2="276.52" y2="249.36"/><ellipse class="cls-20" cx="276.52" cy="248.47" rx="1.47" ry="1.96"/><line class="cls-21" x1="276.52" y1="247.23" x2="276.52" y2="242.96"/><ellipse class="cls-20" cx="276.52" cy="242.07" rx="1.47" ry="1.96"/><line class="cls-21" x1="276.52" y1="240.83" x2="276.52" y2="236.56"/><ellipse class="cls-20" cx="276.52" cy="235.67" rx="1.47" ry="1.96"/><line class="cls-21" x1="276.52" y1="234.43" x2="276.52" y2="230.16"/><ellipse class="cls-20" cx="276.52" cy="229.27" rx="1.47" ry="1.96"/><line class="cls-21" x1="276.52" y1="228.03" x2="276.52" y2="223.76"/><ellipse class="cls-20" cx="276.52" cy="222.87" rx="1.47" ry="1.96"/><line class="cls-21" x1="276.52" y1="221.63" x2="276.52" y2="217.36"/><ellipse class="cls-20" cx="276.52" cy="216.47" rx="1.47" ry="1.96"/><line class="cls-21" x1="276.52" y1="215.23" x2="276.52" y2="210.96"/><path class="cls-20" d="M275.05,210.07c0-1.08.66-1.95,1.47-1.95s1.47.87,1.47,1.95-.66,2-1.47,2S275.05,211.15,275.05,210.07Z"/><line class="cls-21" x1="276.52" y1="208.83" x2="276.52" y2="204.56"/><path class="cls-20" d="M275.05,203.67c0-1.08.66-1.95,1.47-1.95s1.47.87,1.47,1.95-.66,2-1.47,2S275.05,204.75,275.05,203.67Z"/><line class="cls-21" x1="276.52" y1="202.43" x2="276.52" y2="198.16"/><path class="cls-20" d="M275.05,197.27c0-1.08.66-2,1.47-2s1.47.87,1.47,2-.66,2-1.47,2S275.05,198.35,275.05,197.27Z"/><line class="cls-21" x1="276.52" y1="196.03" x2="276.52" y2="191.76"/><path class="cls-20" d="M275.05,190.87c0-1.08.66-2,1.47-2s1.47.87,1.47,2-.66,2-1.47,2S275.05,192,275.05,190.87Z"/><line class="cls-21" x1="276.52" y1="189.63" x2="276.52" y2="185.36"/><path class="cls-20" d="M275.05,184.47c0-1.08.66-1.95,1.47-1.95s1.47.87,1.47,1.95-.66,2-1.47,2S275.05,185.55,275.05,184.47Z"/><line class="cls-21" x1="276.52" y1="183.23" x2="276.52" y2="178.96"/><path class="cls-20" d="M275.05,178.07c0-1.08.66-1.95,1.47-1.95s1.47.87,1.47,1.95-.66,2-1.47,2S275.05,179.15,275.05,178.07Z"/><line class="cls-21" x1="276.52" y1="176.83" x2="276.52" y2="172.56"/><path class="cls-20" d="M275.05,171.12c0-1.08.66-2,1.47-2s1.47.88,1.47,2-.66,1.95-1.47,1.95S275.05,172.2,275.05,171.12Z"/><line class="cls-21" x1="276.52" y1="169.87" x2="276.52" y2="165.61"/><path class="cls-20" d="M275.05,164.72c0-1.08.66-2,1.47-2s1.47.88,1.47,2-.66,1.95-1.47,1.95S275.05,165.8,275.05,164.72Z"/><line class="cls-21" x1="276.52" y1="163.47" x2="276.52" y2="159.21"/><path class="cls-20" d="M275.05,158.32c0-1.08.66-2,1.47-2s1.47.88,1.47,2-.66,2-1.47,2S275.05,159.4,275.05,158.32Z"/><line class="cls-21" x1="276.52" y1="157.07" x2="276.52" y2="152.81"/><path class="cls-20" d="M275.05,151.92c0-1.08.66-2,1.47-2s1.47.88,1.47,2-.66,2-1.47,2S275.05,153,275.05,151.92Z"/><line class="cls-21" x1="276.52" y1="150.68" x2="276.52" y2="146.41"/><path class="cls-20" d="M275.05,145.52c0-1.08.66-2,1.47-2s1.47.88,1.47,2-.66,2-1.47,2S275.05,146.6,275.05,145.52Z"/><line class="cls-21" x1="276.52" y1="144.28" x2="276.52" y2="140.01"/><path class="cls-20" d="M275.05,139.12c0-1.08.66-2,1.47-2s1.47.88,1.47,2-.66,2-1.47,2S275.05,140.2,275.05,139.12Z"/><line class="cls-21" x1="276.52" y1="137.88" x2="276.52" y2="133.61"/><path class="cls-20" d="M275.05,132.72c0-1.08.66-2,1.47-2s1.47.88,1.47,2-.66,2-1.47,2S275.05,133.8,275.05,132.72Z"/><line class="cls-21" x1="276.52" y1="131.48" x2="276.52" y2="127.21"/><path class="cls-20" d="M275.05,126.32c0-1.08.66-2,1.47-2s1.47.88,1.47,2-.66,2-1.47,2S275.05,127.4,275.05,126.32Z"/><line class="cls-21" x1="276.52" y1="125.08" x2="276.52" y2="120.81"/><path class="cls-20" d="M275.05,119.92c0-1.08.66-2,1.47-2s1.47.88,1.47,2-.66,2-1.47,2S275.05,121,275.05,119.92Z"/><line class="cls-21" x1="276.52" y1="118.68" x2="276.52" y2="114.41"/><path class="cls-20" d="M275.05,113.52c0-1.08.66-2,1.47-2s1.47.88,1.47,2-.66,2-1.47,2S275.05,114.6,275.05,113.52Z"/><line class="cls-21" x1="276.52" y1="112.28" x2="276.52" y2="108.01"/><path class="cls-20" d="M275.05,107.12c0-1.08.66-2,1.47-2s1.47.88,1.47,2-.66,2-1.47,2S275.05,108.2,275.05,107.12Z"/><line class="cls-21" x1="276.52" y1="105.88" x2="276.52" y2="101.61"/><path class="cls-20" d="M275.05,100.72c0-1.08.66-2,1.47-2s1.47.88,1.47,2-.66,2-1.47,2S275.05,101.8,275.05,100.72Z"/><line class="cls-21" x1="276.52" y1="99.48" x2="276.52" y2="95.21"/><path class="cls-20" d="M275.05,94.32c0-1.08.66-1.95,1.47-1.95s1.47.87,1.47,1.95-.66,2-1.47,2S275.05,95.4,275.05,94.32Z"/><line class="cls-21" x1="276.52" y1="93.08" x2="276.52" y2="88.81"/><path class="cls-20" d="M275.05,87.92c0-1.08.66-2,1.47-2s1.47.87,1.47,2-.66,2-1.47,2S275.05,89,275.05,87.92Z"/><line class="cls-21" x1="276.52" y1="86.68" x2="276.52" y2="82.41"/><path class="cls-20" d="M275.05,81.52c0-1.08.66-2,1.47-2s1.47.87,1.47,2-.66,2-1.47,2S275.05,82.6,275.05,81.52Z"/><line class="cls-21" x1="276.52" y1="80.28" x2="276.52" y2="76.01"/><path class="cls-20" d="M275.05,75.12c0-1.08.66-2,1.47-2s1.47.87,1.47,2-.66,2-1.47,2S275.05,76.2,275.05,75.12Z"/><line class="cls-21" x1="276.52" y1="73.88" x2="276.52" y2="69.61"/><path class="cls-20" d="M275.05,68.72c0-1.08.66-2,1.47-2s1.47.87,1.47,2-.66,2-1.47,2S275.05,69.8,275.05,68.72Z"/><line class="cls-21" x1="276.52" y1="67.48" x2="276.52" y2="63.21"/><path class="cls-20" d="M275.05,62.32c0-1.08.66-2,1.47-2s1.47.87,1.47,2-.66,2-1.47,2S275.05,63.4,275.05,62.32Z"/><line class="cls-21" x1="276.52" y1="61.08" x2="276.52" y2="56.81"/><path class="cls-20" d="M275.05,55.92c0-1.08.66-2,1.47-2s1.47.87,1.47,2-.66,2-1.47,2S275.05,57,275.05,55.92Z"/><line class="cls-21" x1="276.52" y1="54.68" x2="276.52" y2="50.41"/></g><rect class="cls-11" x="254.5" y="286.91" width="133.23" height="16.83" rx="5"/><rect class="cls-15" x="254.5" y="286.91" width="133.23" height="16.83" rx="5"/><rect class="cls-11" x="346.87" y="286.91" width="40.87" height="16.83" rx="5"/><path class="cls-7" d="M371.64,295.33A4.34,4.34,0,1,1,367.3,291,4.34,4.34,0,0,1,371.64,295.33Z"/><path class="cls-17" d="M366.36,293.27c0-1.08.66-2,1.47-2s1.46.88,1.46,2-.65,2-1.46,2S366.36,294.35,366.36,293.27Z"/><line class="cls-18" x1="367.83" y1="292.02" x2="367.83" y2="287.76"/><path class="cls-17" d="M366.36,286.87c0-1.08.66-2,1.47-2s1.46.88,1.46,2-.65,1.95-1.46,1.95S366.36,288,366.36,286.87Z"/><line class="cls-18" x1="367.83" y1="285.62" x2="367.83" y2="281.36"/><path class="cls-17" d="M366.36,280.47c0-1.08.66-2,1.47-2s1.46.88,1.46,2-.65,1.95-1.46,1.95S366.36,281.55,366.36,280.47Z"/><line class="cls-18" x1="367.83" y1="279.22" x2="367.83" y2="274.96"/><path class="cls-17" d="M366.36,274.07c0-1.08.66-2,1.47-2s1.46.88,1.46,2-.65,1.95-1.46,1.95S366.36,275.15,366.36,274.07Z"/><line class="cls-18" x1="367.83" y1="272.82" x2="367.83" y2="268.56"/><path class="cls-17" d="M366.36,267.67c0-1.08.66-2,1.47-2s1.46.88,1.46,2-.65,2-1.46,2S366.36,268.75,366.36,267.67Z"/><line class="cls-18" x1="367.83" y1="266.43" x2="367.83" y2="262.16"/><path class="cls-17" d="M366.36,261.27c0-1.08.66-2,1.47-2s1.46.88,1.46,2-.65,2-1.46,2S366.36,262.35,366.36,261.27Z"/><line class="cls-18" x1="367.83" y1="260.03" x2="367.83" y2="255.76"/><ellipse class="cls-17" cx="367.83" cy="254.87" rx="1.47" ry="1.96"/><line class="cls-18" x1="367.83" y1="253.63" x2="367.83" y2="249.36"/><ellipse class="cls-17" cx="367.83" cy="248.47" rx="1.47" ry="1.96"/><line class="cls-18" x1="367.83" y1="247.23" x2="367.83" y2="242.96"/><ellipse class="cls-17" cx="367.83" cy="242.07" rx="1.47" ry="1.96"/><line class="cls-18" x1="367.83" y1="240.83" x2="367.83" y2="236.56"/><ellipse class="cls-17" cx="367.83" cy="235.67" rx="1.47" ry="1.96"/><line class="cls-18" x1="367.83" y1="234.43" x2="367.83" y2="230.16"/><ellipse class="cls-17" cx="367.83" cy="229.27" rx="1.47" ry="1.96"/><line class="cls-18" x1="367.83" y1="228.03" x2="367.83" y2="223.76"/><ellipse class="cls-17" cx="367.83" cy="222.87" rx="1.47" ry="1.96"/><line class="cls-18" x1="367.83" y1="221.63" x2="367.83" y2="217.36"/><ellipse class="cls-17" cx="367.83" cy="216.47" rx="1.47" ry="1.96"/><line class="cls-18" x1="367.83" y1="215.23" x2="367.83" y2="210.96"/><path class="cls-17" d="M366.36,210.07c0-1.08.66-1.95,1.47-1.95s1.46.87,1.46,1.95-.65,2-1.46,2S366.36,211.15,366.36,210.07Z"/><line class="cls-18" x1="367.83" y1="208.83" x2="367.83" y2="204.56"/><path class="cls-17" d="M366.36,203.67c0-1.08.66-1.95,1.47-1.95s1.46.87,1.46,1.95-.65,2-1.46,2S366.36,204.75,366.36,203.67Z"/><line class="cls-18" x1="367.83" y1="202.43" x2="367.83" y2="198.16"/><path class="cls-17" d="M366.36,197.27c0-1.08.66-2,1.47-2s1.46.87,1.46,2-.65,2-1.46,2S366.36,198.35,366.36,197.27Z"/><line class="cls-18" x1="367.83" y1="196.03" x2="367.83" y2="191.76"/><path class="cls-17" d="M366.36,190.87c0-1.08.66-2,1.47-2s1.46.87,1.46,2-.65,2-1.46,2S366.36,192,366.36,190.87Z"/><line class="cls-18" x1="367.83" y1="189.63" x2="367.83" y2="185.36"/><path class="cls-17" d="M366.36,184.47c0-1.08.66-1.95,1.47-1.95s1.46.87,1.46,1.95-.65,2-1.46,2S366.36,185.55,366.36,184.47Z"/><line class="cls-18" x1="367.83" y1="183.23" x2="367.83" y2="178.96"/><path class="cls-17" d="M366.36,178.07c0-1.08.66-1.95,1.47-1.95s1.46.87,1.46,1.95-.65,2-1.46,2S366.36,179.15,366.36,178.07Z"/><line class="cls-18" x1="367.83" y1="176.83" x2="367.83" y2="172.56"/><path class="cls-17" d="M366.36,171.12c0-1.08.66-2,1.47-2s1.46.88,1.46,2-.65,1.95-1.46,1.95S366.36,172.2,366.36,171.12Z"/><line class="cls-18" x1="367.83" y1="169.87" x2="367.83" y2="165.61"/><path class="cls-17" d="M366.36,164.72c0-1.08.66-2,1.47-2s1.46.88,1.46,2-.65,1.95-1.46,1.95S366.36,165.8,366.36,164.72Z"/><line class="cls-18" x1="367.83" y1="163.47" x2="367.83" y2="159.21"/><path class="cls-17" d="M366.36,158.32c0-1.08.66-2,1.47-2s1.46.88,1.46,2-.65,2-1.46,2S366.36,159.4,366.36,158.32Z"/><line class="cls-18" x1="367.83" y1="157.07" x2="367.83" y2="152.81"/><path class="cls-17" d="M366.36,151.92c0-1.08.66-2,1.47-2s1.46.88,1.46,2-.65,2-1.46,2S366.36,153,366.36,151.92Z"/><line class="cls-18" x1="367.83" y1="150.68" x2="367.83" y2="146.41"/><path class="cls-17" d="M366.36,145.52c0-1.08.66-2,1.47-2s1.46.88,1.46,2-.65,2-1.46,2S366.36,146.6,366.36,145.52Z"/><line class="cls-18" x1="367.83" y1="144.28" x2="367.83" y2="140.01"/><path class="cls-17" d="M366.36,139.12c0-1.08.66-2,1.47-2s1.46.88,1.46,2-.65,2-1.46,2S366.36,140.2,366.36,139.12Z"/><line class="cls-18" x1="367.83" y1="137.88" x2="367.83" y2="133.61"/><path class="cls-17" d="M366.36,132.72c0-1.08.66-2,1.47-2s1.46.88,1.46,2-.65,2-1.46,2S366.36,133.8,366.36,132.72Z"/><line class="cls-18" x1="367.83" y1="131.48" x2="367.83" y2="127.21"/><path class="cls-17" d="M366.36,126.32c0-1.08.66-2,1.47-2s1.46.88,1.46,2-.65,2-1.46,2S366.36,127.4,366.36,126.32Z"/><line class="cls-18" x1="367.83" y1="125.08" x2="367.83" y2="120.81"/><path class="cls-17" d="M366.36,119.92c0-1.08.66-2,1.47-2s1.46.88,1.46,2-.65,2-1.46,2S366.36,121,366.36,119.92Z"/><line class="cls-18" x1="367.83" y1="118.68" x2="367.83" y2="114.41"/><path class="cls-17" d="M366.36,113.52c0-1.08.66-2,1.47-2s1.46.88,1.46,2-.65,2-1.46,2S366.36,114.6,366.36,113.52Z"/><line class="cls-18" x1="367.83" y1="112.28" x2="367.83" y2="108.01"/><path class="cls-17" d="M366.36,107.12c0-1.08.66-2,1.47-2s1.46.88,1.46,2-.65,2-1.46,2S366.36,108.2,366.36,107.12Z"/><line class="cls-18" x1="367.83" y1="105.88" x2="367.83" y2="101.61"/><path class="cls-17" d="M366.36,100.72c0-1.08.66-2,1.47-2s1.46.88,1.46,2-.65,2-1.46,2S366.36,101.8,366.36,100.72Z"/><line class="cls-18" x1="367.83" y1="99.48" x2="367.83" y2="95.21"/><path class="cls-17" d="M366.36,94.32c0-1.08.66-1.95,1.47-1.95s1.46.87,1.46,1.95-.65,2-1.46,2S366.36,95.4,366.36,94.32Z"/><line class="cls-18" x1="367.83" y1="93.08" x2="367.83" y2="88.81"/><path class="cls-17" d="M366.36,87.92c0-1.08.66-2,1.47-2s1.46.87,1.46,2-.65,2-1.46,2S366.36,89,366.36,87.92Z"/><line class="cls-18" x1="367.83" y1="86.68" x2="367.83" y2="82.41"/><path class="cls-17" d="M366.36,81.52c0-1.08.66-2,1.47-2s1.46.87,1.46,2-.65,2-1.46,2S366.36,82.6,366.36,81.52Z"/><line class="cls-18" x1="367.83" y1="80.28" x2="367.83" y2="76.01"/><path class="cls-17" d="M366.36,75.12c0-1.08.66-2,1.47-2s1.46.87,1.46,2-.65,2-1.46,2S366.36,76.2,366.36,75.12Z"/><line class="cls-18" x1="367.83" y1="73.88" x2="367.83" y2="69.61"/><path class="cls-17" d="M366.36,68.72c0-1.08.66-2,1.47-2s1.46.87,1.46,2-.65,2-1.46,2S366.36,69.8,366.36,68.72Z"/><line class="cls-18" x1="367.83" y1="67.48" x2="367.83" y2="63.21"/><path class="cls-17" d="M366.36,62.32c0-1.08.66-2,1.47-2s1.46.87,1.46,2-.65,2-1.46,2S366.36,63.4,366.36,62.32Z"/><line class="cls-18" x1="367.83" y1="61.08" x2="367.83" y2="56.81"/><path class="cls-17" d="M366.36,55.92c0-1.08.66-2,1.47-2s1.46.87,1.46,2-.65,2-1.46,2S366.36,57,366.36,55.92Z"/><line class="cls-18" x1="367.83" y1="54.68" x2="367.83" y2="50.41"/><g class="cls-19"><path class="cls-20" d="M366.36,293.27c0-1.08.66-2,1.47-2s1.46.88,1.46,2-.65,2-1.46,2S366.36,294.35,366.36,293.27Z"/><line class="cls-21" x1="367.83" y1="292.02" x2="367.83" y2="287.76"/><path class="cls-20" d="M366.36,286.87c0-1.08.66-2,1.47-2s1.46.88,1.46,2-.65,1.95-1.46,1.95S366.36,288,366.36,286.87Z"/><line class="cls-21" x1="367.83" y1="285.62" x2="367.83" y2="281.36"/><path class="cls-20" d="M366.36,280.47c0-1.08.66-2,1.47-2s1.46.88,1.46,2-.65,1.95-1.46,1.95S366.36,281.55,366.36,280.47Z"/><line class="cls-21" x1="367.83" y1="279.22" x2="367.83" y2="274.96"/><path class="cls-20" d="M366.36,274.07c0-1.08.66-2,1.47-2s1.46.88,1.46,2-.65,1.95-1.46,1.95S366.36,275.15,366.36,274.07Z"/><line class="cls-21" x1="367.83" y1="272.82" x2="367.83" y2="268.56"/><path class="cls-20" d="M366.36,267.67c0-1.08.66-2,1.47-2s1.46.88,1.46,2-.65,2-1.46,2S366.36,268.75,366.36,267.67Z"/><line class="cls-21" x1="367.83" y1="266.43" x2="367.83" y2="262.16"/><path class="cls-20" d="M366.36,261.27c0-1.08.66-2,1.47-2s1.46.88,1.46,2-.65,2-1.46,2S366.36,262.35,366.36,261.27Z"/><line class="cls-21" x1="367.83" y1="260.03" x2="367.83" y2="255.76"/><ellipse class="cls-20" cx="367.83" cy="254.87" rx="1.47" ry="1.96"/><line class="cls-21" x1="367.83" y1="253.63" x2="367.83" y2="249.36"/><ellipse class="cls-20" cx="367.83" cy="248.47" rx="1.47" ry="1.96"/><line class="cls-21" x1="367.83" y1="247.23" x2="367.83" y2="242.96"/><ellipse class="cls-20" cx="367.83" cy="242.07" rx="1.47" ry="1.96"/><line class="cls-21" x1="367.83" y1="240.83" x2="367.83" y2="236.56"/><ellipse class="cls-20" cx="367.83" cy="235.67" rx="1.47" ry="1.96"/><line class="cls-21" x1="367.83" y1="234.43" x2="367.83" y2="230.16"/><ellipse class="cls-20" cx="367.83" cy="229.27" rx="1.47" ry="1.96"/><line class="cls-21" x1="367.83" y1="228.03" x2="367.83" y2="223.76"/><ellipse class="cls-20" cx="367.83" cy="222.87" rx="1.47" ry="1.96"/><line class="cls-21" x1="367.83" y1="221.63" x2="367.83" y2="217.36"/><ellipse class="cls-20" cx="367.83" cy="216.47" rx="1.47" ry="1.96"/><line class="cls-21" x1="367.83" y1="215.23" x2="367.83" y2="210.96"/><path class="cls-20" d="M366.36,210.07c0-1.08.66-1.95,1.47-1.95s1.46.87,1.46,1.95-.65,2-1.46,2S366.36,211.15,366.36,210.07Z"/><line class="cls-21" x1="367.83" y1="208.83" x2="367.83" y2="204.56"/><path class="cls-20" d="M366.36,203.67c0-1.08.66-1.95,1.47-1.95s1.46.87,1.46,1.95-.65,2-1.46,2S366.36,204.75,366.36,203.67Z"/><line class="cls-21" x1="367.83" y1="202.43" x2="367.83" y2="198.16"/><path class="cls-20" d="M366.36,197.27c0-1.08.66-2,1.47-2s1.46.87,1.46,2-.65,2-1.46,2S366.36,198.35,366.36,197.27Z"/><line class="cls-21" x1="367.83" y1="196.03" x2="367.83" y2="191.76"/><path class="cls-20" d="M366.36,190.87c0-1.08.66-2,1.47-2s1.46.87,1.46,2-.65,2-1.46,2S366.36,192,366.36,190.87Z"/><line class="cls-21" x1="367.83" y1="189.63" x2="367.83" y2="185.36"/><path class="cls-20" d="M366.36,184.47c0-1.08.66-1.95,1.47-1.95s1.46.87,1.46,1.95-.65,2-1.46,2S366.36,185.55,366.36,184.47Z"/><line class="cls-21" x1="367.83" y1="183.23" x2="367.83" y2="178.96"/><path class="cls-20" d="M366.36,178.07c0-1.08.66-1.95,1.47-1.95s1.46.87,1.46,1.95-.65,2-1.46,2S366.36,179.15,366.36,178.07Z"/><line class="cls-21" x1="367.83" y1="176.83" x2="367.83" y2="172.56"/><path class="cls-20" d="M366.36,171.12c0-1.08.66-2,1.47-2s1.46.88,1.46,2-.65,1.95-1.46,1.95S366.36,172.2,366.36,171.12Z"/><line class="cls-21" x1="367.83" y1="169.87" x2="367.83" y2="165.61"/><path class="cls-20" d="M366.36,164.72c0-1.08.66-2,1.47-2s1.46.88,1.46,2-.65,1.95-1.46,1.95S366.36,165.8,366.36,164.72Z"/><line class="cls-21" x1="367.83" y1="163.47" x2="367.83" y2="159.21"/><path class="cls-20" d="M366.36,158.32c0-1.08.66-2,1.47-2s1.46.88,1.46,2-.65,2-1.46,2S366.36,159.4,366.36,158.32Z"/><line class="cls-21" x1="367.83" y1="157.07" x2="367.83" y2="152.81"/><path class="cls-20" d="M366.36,151.92c0-1.08.66-2,1.47-2s1.46.88,1.46,2-.65,2-1.46,2S366.36,153,366.36,151.92Z"/><line class="cls-21" x1="367.83" y1="150.68" x2="367.83" y2="146.41"/><path class="cls-20" d="M366.36,145.52c0-1.08.66-2,1.47-2s1.46.88,1.46,2-.65,2-1.46,2S366.36,146.6,366.36,145.52Z"/><line class="cls-21" x1="367.83" y1="144.28" x2="367.83" y2="140.01"/><path class="cls-20" d="M366.36,139.12c0-1.08.66-2,1.47-2s1.46.88,1.46,2-.65,2-1.46,2S366.36,140.2,366.36,139.12Z"/><line class="cls-21" x1="367.83" y1="137.88" x2="367.83" y2="133.61"/><path class="cls-20" d="M366.36,132.72c0-1.08.66-2,1.47-2s1.46.88,1.46,2-.65,2-1.46,2S366.36,133.8,366.36,132.72Z"/><line class="cls-21" x1="367.83" y1="131.48" x2="367.83" y2="127.21"/><path class="cls-20" d="M366.36,126.32c0-1.08.66-2,1.47-2s1.46.88,1.46,2-.65,2-1.46,2S366.36,127.4,366.36,126.32Z"/><line class="cls-21" x1="367.83" y1="125.08" x2="367.83" y2="120.81"/><path class="cls-20" d="M366.36,119.92c0-1.08.66-2,1.47-2s1.46.88,1.46,2-.65,2-1.46,2S366.36,121,366.36,119.92Z"/><line class="cls-21" x1="367.83" y1="118.68" x2="367.83" y2="114.41"/><path class="cls-20" d="M366.36,113.52c0-1.08.66-2,1.47-2s1.46.88,1.46,2-.65,2-1.46,2S366.36,114.6,366.36,113.52Z"/><line class="cls-21" x1="367.83" y1="112.28" x2="367.83" y2="108.01"/><path class="cls-20" d="M366.36,107.12c0-1.08.66-2,1.47-2s1.46.88,1.46,2-.65,2-1.46,2S366.36,108.2,366.36,107.12Z"/><line class="cls-21" x1="367.83" y1="105.88" x2="367.83" y2="101.61"/><path class="cls-20" d="M366.36,100.72c0-1.08.66-2,1.47-2s1.46.88,1.46,2-.65,2-1.46,2S366.36,101.8,366.36,100.72Z"/><line class="cls-21" x1="367.83" y1="99.48" x2="367.83" y2="95.21"/><path class="cls-20" d="M366.36,94.32c0-1.08.66-1.95,1.47-1.95s1.46.87,1.46,1.95-.65,2-1.46,2S366.36,95.4,366.36,94.32Z"/><line class="cls-21" x1="367.83" y1="93.08" x2="367.83" y2="88.81"/><path class="cls-20" d="M366.36,87.92c0-1.08.66-2,1.47-2s1.46.87,1.46,2-.65,2-1.46,2S366.36,89,366.36,87.92Z"/><line class="cls-21" x1="367.83" y1="86.68" x2="367.83" y2="82.41"/><path class="cls-20" d="M366.36,81.52c0-1.08.66-2,1.47-2s1.46.87,1.46,2-.65,2-1.46,2S366.36,82.6,366.36,81.52Z"/><line class="cls-21" x1="367.83" y1="80.28" x2="367.83" y2="76.01"/><path class="cls-20" d="M366.36,75.12c0-1.08.66-2,1.47-2s1.46.87,1.46,2-.65,2-1.46,2S366.36,76.2,366.36,75.12Z"/><line class="cls-21" x1="367.83" y1="73.88" x2="367.83" y2="69.61"/><path class="cls-20" d="M366.36,68.72c0-1.08.66-2,1.47-2s1.46.87,1.46,2-.65,2-1.46,2S366.36,69.8,366.36,68.72Z"/><line class="cls-21" x1="367.83" y1="67.48" x2="367.83" y2="63.21"/><path class="cls-20" d="M366.36,62.32c0-1.08.66-2,1.47-2s1.46.87,1.46,2-.65,2-1.46,2S366.36,63.4,366.36,62.32Z"/><line class="cls-21" x1="367.83" y1="61.08" x2="367.83" y2="56.81"/><path class="cls-20" d="M366.36,55.92c0-1.08.66-2,1.47-2s1.46.87,1.46,2-.65,2-1.46,2S366.36,57,366.36,55.92Z"/><line class="cls-21" x1="367.83" y1="54.68" x2="367.83" y2="50.41"/></g><path class="cls-17" d="M130,178.07c0-1.08.66-1.95,1.47-1.95s1.47.87,1.47,1.95-.66,2-1.47,2S130,179.15,130,178.07Z"/><line class="cls-18" x1="131.51" y1="176.83" x2="131.51" y2="172.56"/><path class="cls-17" d="M130,171.12c0-1.08.66-2,1.47-2s1.47.88,1.47,2-.66,1.95-1.47,1.95S130,172.2,130,171.12Z"/><line class="cls-18" x1="131.51" y1="169.87" x2="131.51" y2="165.61"/><path class="cls-17" d="M130,164.72c0-1.08.66-2,1.47-2s1.47.88,1.47,2-.66,1.95-1.47,1.95S130,165.8,130,164.72Z"/><line class="cls-18" x1="131.51" y1="163.47" x2="131.51" y2="159.21"/><path class="cls-17" d="M130,158.32c0-1.08.66-2,1.47-2s1.47.88,1.47,2-.66,2-1.47,2S130,159.4,130,158.32Z"/><line class="cls-18" x1="131.51" y1="157.07" x2="131.51" y2="152.81"/><path class="cls-17" d="M130,151.92c0-1.08.66-2,1.47-2s1.47.88,1.47,2-.66,2-1.47,2S130,153,130,151.92Z"/><line class="cls-18" x1="131.51" y1="150.68" x2="131.51" y2="146.41"/><path class="cls-17" d="M130,145.52c0-1.08.66-2,1.47-2s1.47.88,1.47,2-.66,2-1.47,2S130,146.6,130,145.52Z"/><line class="cls-18" x1="131.51" y1="144.28" x2="131.51" y2="140.01"/><path class="cls-17" d="M130,139.12c0-1.08.66-2,1.47-2s1.47.88,1.47,2-.66,2-1.47,2S130,140.2,130,139.12Z"/><line class="cls-18" x1="131.51" y1="137.88" x2="131.51" y2="133.61"/><path class="cls-17" d="M130,132.72c0-1.08.66-2,1.47-2s1.47.88,1.47,2-.66,2-1.47,2S130,133.8,130,132.72Z"/><line class="cls-18" x1="131.51" y1="131.48" x2="131.51" y2="127.21"/><path class="cls-17" d="M130,126.32c0-1.08.66-2,1.47-2s1.47.88,1.47,2-.66,2-1.47,2S130,127.4,130,126.32Z"/><line class="cls-18" x1="131.51" y1="125.08" x2="131.51" y2="120.81"/><path class="cls-17" d="M130,119.92c0-1.08.66-2,1.47-2s1.47.88,1.47,2-.66,2-1.47,2S130,121,130,119.92Z"/><line class="cls-18" x1="131.51" y1="118.68" x2="131.51" y2="114.41"/><path class="cls-17" d="M130,113.52c0-1.08.66-2,1.47-2s1.47.88,1.47,2-.66,2-1.47,2S130,114.6,130,113.52Z"/><line class="cls-18" x1="131.51" y1="112.28" x2="131.51" y2="108.01"/><path class="cls-17" d="M130,107.12c0-1.08.66-2,1.47-2s1.47.88,1.47,2-.66,2-1.47,2S130,108.2,130,107.12Z"/><line class="cls-18" x1="131.51" y1="105.88" x2="131.51" y2="101.61"/><path class="cls-17" d="M130,100.72c0-1.08.66-2,1.47-2s1.47.88,1.47,2-.66,2-1.47,2S130,101.8,130,100.72Z"/><line class="cls-18" x1="131.51" y1="99.48" x2="131.51" y2="95.21"/><path class="cls-17" d="M130,94.32c0-1.08.66-1.95,1.47-1.95s1.47.87,1.47,1.95-.66,2-1.47,2S130,95.4,130,94.32Z"/><line class="cls-18" x1="131.51" y1="93.08" x2="131.51" y2="88.81"/><path class="cls-17" d="M130,87.92c0-1.08.66-2,1.47-2s1.47.87,1.47,2-.66,2-1.47,2S130,89,130,87.92Z"/><line class="cls-18" x1="131.51" y1="86.68" x2="131.51" y2="82.41"/><path class="cls-17" d="M130,81.52c0-1.08.66-2,1.47-2s1.47.87,1.47,2-.66,2-1.47,2S130,82.6,130,81.52Z"/><line class="cls-18" x1="131.51" y1="80.28" x2="131.51" y2="76.01"/><path class="cls-17" d="M130,75.12c0-1.08.66-2,1.47-2s1.47.87,1.47,2-.66,2-1.47,2S130,76.2,130,75.12Z"/><line class="cls-18" x1="131.51" y1="73.88" x2="131.51" y2="69.61"/><path class="cls-17" d="M130,68.72c0-1.08.66-2,1.47-2s1.47.87,1.47,2-.66,2-1.47,2S130,69.8,130,68.72Z"/><line class="cls-18" x1="131.51" y1="67.48" x2="131.51" y2="63.21"/><path class="cls-17" d="M130,62.32c0-1.08.66-2,1.47-2s1.47.87,1.47,2-.66,2-1.47,2S130,63.4,130,62.32Z"/><line class="cls-18" x1="131.51" y1="61.08" x2="131.51" y2="56.81"/><path class="cls-17" d="M130,55.92c0-1.08.66-2,1.47-2s1.47.87,1.47,2-.66,2-1.47,2S130,57,130,55.92Z"/><line class="cls-18" x1="131.51" y1="54.68" x2="131.51" y2="50.41"/><g class="cls-19"><path class="cls-20" d="M130,178.07c0-1.08.66-1.95,1.47-1.95s1.47.87,1.47,1.95-.66,2-1.47,2S130,179.15,130,178.07Z"/><line class="cls-21" x1="131.51" y1="176.83" x2="131.51" y2="172.56"/><path class="cls-20" d="M130,171.12c0-1.08.66-2,1.47-2s1.47.88,1.47,2-.66,1.95-1.47,1.95S130,172.2,130,171.12Z"/><line class="cls-21" x1="131.51" y1="169.87" x2="131.51" y2="165.61"/><path class="cls-20" d="M130,164.72c0-1.08.66-2,1.47-2s1.47.88,1.47,2-.66,1.95-1.47,1.95S130,165.8,130,164.72Z"/><line class="cls-21" x1="131.51" y1="163.47" x2="131.51" y2="159.21"/><path class="cls-20" d="M130,158.32c0-1.08.66-2,1.47-2s1.47.88,1.47,2-.66,2-1.47,2S130,159.4,130,158.32Z"/><line class="cls-21" x1="131.51" y1="157.07" x2="131.51" y2="152.81"/><path class="cls-20" d="M130,151.92c0-1.08.66-2,1.47-2s1.47.88,1.47,2-.66,2-1.47,2S130,153,130,151.92Z"/><line class="cls-21" x1="131.51" y1="150.68" x2="131.51" y2="146.41"/><path class="cls-20" d="M130,145.52c0-1.08.66-2,1.47-2s1.47.88,1.47,2-.66,2-1.47,2S130,146.6,130,145.52Z"/><line class="cls-21" x1="131.51" y1="144.28" x2="131.51" y2="140.01"/><path class="cls-20" d="M130,139.12c0-1.08.66-2,1.47-2s1.47.88,1.47,2-.66,2-1.47,2S130,140.2,130,139.12Z"/><line class="cls-21" x1="131.51" y1="137.88" x2="131.51" y2="133.61"/><path class="cls-20" d="M130,132.72c0-1.08.66-2,1.47-2s1.47.88,1.47,2-.66,2-1.47,2S130,133.8,130,132.72Z"/><line class="cls-21" x1="131.51" y1="131.48" x2="131.51" y2="127.21"/><path class="cls-20" d="M130,126.32c0-1.08.66-2,1.47-2s1.47.88,1.47,2-.66,2-1.47,2S130,127.4,130,126.32Z"/><line class="cls-21" x1="131.51" y1="125.08" x2="131.51" y2="120.81"/><path class="cls-20" d="M130,119.92c0-1.08.66-2,1.47-2s1.47.88,1.47,2-.66,2-1.47,2S130,121,130,119.92Z"/><line class="cls-21" x1="131.51" y1="118.68" x2="131.51" y2="114.41"/><path class="cls-20" d="M130,113.52c0-1.08.66-2,1.47-2s1.47.88,1.47,2-.66,2-1.47,2S130,114.6,130,113.52Z"/><line class="cls-21" x1="131.51" y1="112.28" x2="131.51" y2="108.01"/><path class="cls-20" d="M130,107.12c0-1.08.66-2,1.47-2s1.47.88,1.47,2-.66,2-1.47,2S130,108.2,130,107.12Z"/><line class="cls-21" x1="131.51" y1="105.88" x2="131.51" y2="101.61"/><path class="cls-20" d="M130,100.72c0-1.08.66-2,1.47-2s1.47.88,1.47,2-.66,2-1.47,2S130,101.8,130,100.72Z"/><line class="cls-21" x1="131.51" y1="99.48" x2="131.51" y2="95.21"/><path class="cls-20" d="M130,94.32c0-1.08.66-1.95,1.47-1.95s1.47.87,1.47,1.95-.66,2-1.47,2S130,95.4,130,94.32Z"/><line class="cls-21" x1="131.51" y1="93.08" x2="131.51" y2="88.81"/><path class="cls-20" d="M130,87.92c0-1.08.66-2,1.47-2s1.47.87,1.47,2-.66,2-1.47,2S130,89,130,87.92Z"/><line class="cls-21" x1="131.51" y1="86.68" x2="131.51" y2="82.41"/><path class="cls-20" d="M130,81.52c0-1.08.66-2,1.47-2s1.47.87,1.47,2-.66,2-1.47,2S130,82.6,130,81.52Z"/><line class="cls-21" x1="131.51" y1="80.28" x2="131.51" y2="76.01"/><path class="cls-20" d="M130,75.12c0-1.08.66-2,1.47-2s1.47.87,1.47,2-.66,2-1.47,2S130,76.2,130,75.12Z"/><line class="cls-21" x1="131.51" y1="73.88" x2="131.51" y2="69.61"/><path class="cls-20" d="M130,68.72c0-1.08.66-2,1.47-2s1.47.87,1.47,2-.66,2-1.47,2S130,69.8,130,68.72Z"/><line class="cls-21" x1="131.51" y1="67.48" x2="131.51" y2="63.21"/><path class="cls-20" d="M130,62.32c0-1.08.66-2,1.47-2s1.47.87,1.47,2-.66,2-1.47,2S130,63.4,130,62.32Z"/><line class="cls-21" x1="131.51" y1="61.08" x2="131.51" y2="56.81"/><path class="cls-20" d="M130,55.92c0-1.08.66-2,1.47-2s1.47.87,1.47,2-.66,2-1.47,2S130,57,130,55.92Z"/><line class="cls-21" x1="131.51" y1="54.68" x2="131.51" y2="50.41"/></g><rect class="cls-11" x="109.49" y="286.91" width="133.23" height="16.83" rx="5"/><rect class="cls-15" x="109.49" y="286.91" width="133.23" height="16.83" rx="5"/><rect class="cls-11" x="201.86" y="286.91" width="40.87" height="16.83" rx="5"/><path class="cls-7" d="M226.63,295.33a4.34,4.34,0,1,1-4.34-4.35A4.34,4.34,0,0,1,226.63,295.33Z"/><path class="cls-17" d="M221.35,293.27c0-1.08.66-2,1.47-2s1.46.88,1.46,2-.65,2-1.46,2S221.35,294.35,221.35,293.27Z"/><line class="cls-18" x1="222.82" y1="292.02" x2="222.82" y2="287.76"/><path class="cls-17" d="M221.35,286.87c0-1.08.66-2,1.47-2s1.46.88,1.46,2-.65,1.95-1.46,1.95S221.35,288,221.35,286.87Z"/><line class="cls-18" x1="222.82" y1="285.62" x2="222.82" y2="281.36"/><path class="cls-17" d="M221.35,280.47c0-1.08.66-2,1.47-2s1.46.88,1.46,2-.65,1.95-1.46,1.95S221.35,281.55,221.35,280.47Z"/><line class="cls-18" x1="222.82" y1="279.22" x2="222.82" y2="274.96"/><path class="cls-17" d="M221.35,274.07c0-1.08.66-2,1.47-2s1.46.88,1.46,2-.65,1.95-1.46,1.95S221.35,275.15,221.35,274.07Z"/><line class="cls-18" x1="222.82" y1="272.82" x2="222.82" y2="268.56"/><path class="cls-17" d="M221.35,267.67c0-1.08.66-2,1.47-2s1.46.88,1.46,2-.65,2-1.46,2S221.35,268.75,221.35,267.67Z"/><line class="cls-18" x1="222.82" y1="266.43" x2="222.82" y2="262.16"/><path class="cls-17" d="M221.35,261.27c0-1.08.66-2,1.47-2s1.46.88,1.46,2-.65,2-1.46,2S221.35,262.35,221.35,261.27Z"/><line class="cls-18" x1="222.82" y1="260.03" x2="222.82" y2="255.76"/><ellipse class="cls-17" cx="222.82" cy="254.87" rx="1.47" ry="1.96"/><line class="cls-18" x1="222.82" y1="253.63" x2="222.82" y2="249.36"/><ellipse class="cls-17" cx="222.82" cy="248.47" rx="1.47" ry="1.96"/><line class="cls-18" x1="222.82" y1="247.23" x2="222.82" y2="242.96"/><ellipse class="cls-17" cx="222.82" cy="242.07" rx="1.47" ry="1.96"/><line class="cls-18" x1="222.82" y1="240.83" x2="222.82" y2="236.56"/><ellipse class="cls-17" cx="222.82" cy="235.67" rx="1.47" ry="1.96"/><line class="cls-18" x1="222.82" y1="234.43" x2="222.82" y2="230.16"/><ellipse class="cls-17" cx="222.82" cy="229.27" rx="1.47" ry="1.96"/><line class="cls-18" x1="222.82" y1="228.03" x2="222.82" y2="223.76"/><ellipse class="cls-17" cx="222.82" cy="222.87" rx="1.47" ry="1.96"/><line class="cls-18" x1="222.82" y1="221.63" x2="222.82" y2="217.36"/><ellipse class="cls-17" cx="222.82" cy="216.47" rx="1.47" ry="1.96"/><line class="cls-18" x1="222.82" y1="215.23" x2="222.82" y2="210.96"/><path class="cls-17" d="M221.35,210.07c0-1.08.66-1.95,1.47-1.95s1.46.87,1.46,1.95-.65,2-1.46,2S221.35,211.15,221.35,210.07Z"/><line class="cls-18" x1="222.82" y1="208.83" x2="222.82" y2="204.56"/><path class="cls-17" d="M221.35,203.67c0-1.08.66-1.95,1.47-1.95s1.46.87,1.46,1.95-.65,2-1.46,2S221.35,204.75,221.35,203.67Z"/><line class="cls-18" x1="222.82" y1="202.43" x2="222.82" y2="198.16"/><path class="cls-17" d="M221.35,197.27c0-1.08.66-2,1.47-2s1.46.87,1.46,2-.65,2-1.46,2S221.35,198.35,221.35,197.27Z"/><line class="cls-18" x1="222.82" y1="196.03" x2="222.82" y2="191.76"/><path class="cls-17" d="M221.35,190.87c0-1.08.66-2,1.47-2s1.46.87,1.46,2-.65,2-1.46,2S221.35,192,221.35,190.87Z"/><line class="cls-18" x1="222.82" y1="189.63" x2="222.82" y2="185.36"/><path class="cls-17" d="M221.35,184.47c0-1.08.66-1.95,1.47-1.95s1.46.87,1.46,1.95-.65,2-1.46,2S221.35,185.55,221.35,184.47Z"/><line class="cls-18" x1="222.82" y1="183.23" x2="222.82" y2="178.96"/><path class="cls-17" d="M221.35,178.07c0-1.08.66-1.95,1.47-1.95s1.46.87,1.46,1.95-.65,2-1.46,2S221.35,179.15,221.35,178.07Z"/><line class="cls-18" x1="222.82" y1="176.83" x2="222.82" y2="172.56"/><path class="cls-17" d="M221.35,171.12c0-1.08.66-2,1.47-2s1.46.88,1.46,2-.65,1.95-1.46,1.95S221.35,172.2,221.35,171.12Z"/><line class="cls-18" x1="222.82" y1="169.87" x2="222.82" y2="165.61"/><path class="cls-17" d="M221.35,164.72c0-1.08.66-2,1.47-2s1.46.88,1.46,2-.65,1.95-1.46,1.95S221.35,165.8,221.35,164.72Z"/><line class="cls-18" x1="222.82" y1="163.47" x2="222.82" y2="159.21"/><path class="cls-17" d="M221.35,158.32c0-1.08.66-2,1.47-2s1.46.88,1.46,2-.65,2-1.46,2S221.35,159.4,221.35,158.32Z"/><line class="cls-18" x1="222.82" y1="157.07" x2="222.82" y2="152.81"/><path class="cls-17" d="M221.35,151.92c0-1.08.66-2,1.47-2s1.46.88,1.46,2-.65,2-1.46,2S221.35,153,221.35,151.92Z"/><line class="cls-18" x1="222.82" y1="150.68" x2="222.82" y2="146.41"/><path class="cls-17" d="M221.35,145.52c0-1.08.66-2,1.47-2s1.46.88,1.46,2-.65,2-1.46,2S221.35,146.6,221.35,145.52Z"/><line class="cls-18" x1="222.82" y1="144.28" x2="222.82" y2="140.01"/><path class="cls-17" d="M221.35,139.12c0-1.08.66-2,1.47-2s1.46.88,1.46,2-.65,2-1.46,2S221.35,140.2,221.35,139.12Z"/><line class="cls-18" x1="222.82" y1="137.88" x2="222.82" y2="133.61"/><path class="cls-17" d="M221.35,132.72c0-1.08.66-2,1.47-2s1.46.88,1.46,2-.65,2-1.46,2S221.35,133.8,221.35,132.72Z"/><line class="cls-18" x1="222.82" y1="131.48" x2="222.82" y2="127.21"/><path class="cls-17" d="M221.35,126.32c0-1.08.66-2,1.47-2s1.46.88,1.46,2-.65,2-1.46,2S221.35,127.4,221.35,126.32Z"/><line class="cls-18" x1="222.82" y1="125.08" x2="222.82" y2="120.81"/><path class="cls-17" d="M221.35,119.92c0-1.08.66-2,1.47-2s1.46.88,1.46,2-.65,2-1.46,2S221.35,121,221.35,119.92Z"/><line class="cls-18" x1="222.82" y1="118.68" x2="222.82" y2="114.41"/><path class="cls-17" d="M221.35,113.52c0-1.08.66-2,1.47-2s1.46.88,1.46,2-.65,2-1.46,2S221.35,114.6,221.35,113.52Z"/><line class="cls-18" x1="222.82" y1="112.28" x2="222.82" y2="108.01"/><path class="cls-17" d="M221.35,107.12c0-1.08.66-2,1.47-2s1.46.88,1.46,2-.65,2-1.46,2S221.35,108.2,221.35,107.12Z"/><line class="cls-18" x1="222.82" y1="105.88" x2="222.82" y2="101.61"/><path class="cls-17" d="M221.35,100.72c0-1.08.66-2,1.47-2s1.46.88,1.46,2-.65,2-1.46,2S221.35,101.8,221.35,100.72Z"/><line class="cls-18" x1="222.82" y1="99.48" x2="222.82" y2="95.21"/><path class="cls-17" d="M221.35,94.32c0-1.08.66-1.95,1.47-1.95s1.46.87,1.46,1.95-.65,2-1.46,2S221.35,95.4,221.35,94.32Z"/><line class="cls-18" x1="222.82" y1="93.08" x2="222.82" y2="88.81"/><path class="cls-17" d="M221.35,87.92c0-1.08.66-2,1.47-2s1.46.87,1.46,2-.65,2-1.46,2S221.35,89,221.35,87.92Z"/><line class="cls-18" x1="222.82" y1="86.68" x2="222.82" y2="82.41"/><path class="cls-17" d="M221.35,81.52c0-1.08.66-2,1.47-2s1.46.87,1.46,2-.65,2-1.46,2S221.35,82.6,221.35,81.52Z"/><line class="cls-18" x1="222.82" y1="80.28" x2="222.82" y2="76.01"/><path class="cls-17" d="M221.35,75.12c0-1.08.66-2,1.47-2s1.46.87,1.46,2-.65,2-1.46,2S221.35,76.2,221.35,75.12Z"/><line class="cls-18" x1="222.82" y1="73.88" x2="222.82" y2="69.61"/><path class="cls-17" d="M221.35,68.72c0-1.08.66-2,1.47-2s1.46.87,1.46,2-.65,2-1.46,2S221.35,69.8,221.35,68.72Z"/><line class="cls-18" x1="222.82" y1="67.48" x2="222.82" y2="63.21"/><path class="cls-17" d="M221.35,62.32c0-1.08.66-2,1.47-2s1.46.87,1.46,2-.65,2-1.46,2S221.35,63.4,221.35,62.32Z"/><line class="cls-18" x1="222.82" y1="61.08" x2="222.82" y2="56.81"/><path class="cls-17" d="M221.35,55.92c0-1.08.66-2,1.47-2s1.46.87,1.46,2-.65,2-1.46,2S221.35,57,221.35,55.92Z"/><line class="cls-18" x1="222.82" y1="54.68" x2="222.82" y2="50.41"/><g class="cls-19"><path class="cls-20" d="M221.35,293.27c0-1.08.66-2,1.47-2s1.46.88,1.46,2-.65,2-1.46,2S221.35,294.35,221.35,293.27Z"/><line class="cls-21" x1="222.82" y1="292.02" x2="222.82" y2="287.76"/><path class="cls-20" d="M221.35,286.87c0-1.08.66-2,1.47-2s1.46.88,1.46,2-.65,1.95-1.46,1.95S221.35,288,221.35,286.87Z"/><line class="cls-21" x1="222.82" y1="285.62" x2="222.82" y2="281.36"/><path class="cls-20" d="M221.35,280.47c0-1.08.66-2,1.47-2s1.46.88,1.46,2-.65,1.95-1.46,1.95S221.35,281.55,221.35,280.47Z"/><line class="cls-21" x1="222.82" y1="279.22" x2="222.82" y2="274.96"/><path class="cls-20" d="M221.35,274.07c0-1.08.66-2,1.47-2s1.46.88,1.46,2-.65,1.95-1.46,1.95S221.35,275.15,221.35,274.07Z"/><line class="cls-21" x1="222.82" y1="272.82" x2="222.82" y2="268.56"/><path class="cls-20" d="M221.35,267.67c0-1.08.66-2,1.47-2s1.46.88,1.46,2-.65,2-1.46,2S221.35,268.75,221.35,267.67Z"/><line class="cls-21" x1="222.82" y1="266.43" x2="222.82" y2="262.16"/><path class="cls-20" d="M221.35,261.27c0-1.08.66-2,1.47-2s1.46.88,1.46,2-.65,2-1.46,2S221.35,262.35,221.35,261.27Z"/><line class="cls-21" x1="222.82" y1="260.03" x2="222.82" y2="255.76"/><ellipse class="cls-20" cx="222.82" cy="254.87" rx="1.47" ry="1.96"/><line class="cls-21" x1="222.82" y1="253.63" x2="222.82" y2="249.36"/><ellipse class="cls-20" cx="222.82" cy="248.47" rx="1.47" ry="1.96"/><line class="cls-21" x1="222.82" y1="247.23" x2="222.82" y2="242.96"/><ellipse class="cls-20" cx="222.82" cy="242.07" rx="1.47" ry="1.96"/><line class="cls-21" x1="222.82" y1="240.83" x2="222.82" y2="236.56"/><ellipse class="cls-20" cx="222.82" cy="235.67" rx="1.47" ry="1.96"/><line class="cls-21" x1="222.82" y1="234.43" x2="222.82" y2="230.16"/><ellipse class="cls-20" cx="222.82" cy="229.27" rx="1.47" ry="1.96"/><line class="cls-21" x1="222.82" y1="228.03" x2="222.82" y2="223.76"/><ellipse class="cls-20" cx="222.82" cy="222.87" rx="1.47" ry="1.96"/><line class="cls-21" x1="222.82" y1="221.63" x2="222.82" y2="217.36"/><ellipse class="cls-20" cx="222.82" cy="216.47" rx="1.47" ry="1.96"/><line class="cls-21" x1="222.82" y1="215.23" x2="222.82" y2="210.96"/><path class="cls-20" d="M221.35,210.07c0-1.08.66-1.95,1.47-1.95s1.46.87,1.46,1.95-.65,2-1.46,2S221.35,211.15,221.35,210.07Z"/><line class="cls-21" x1="222.82" y1="208.83" x2="222.82" y2="204.56"/><path class="cls-20" d="M221.35,203.67c0-1.08.66-1.95,1.47-1.95s1.46.87,1.46,1.95-.65,2-1.46,2S221.35,204.75,221.35,203.67Z"/><line class="cls-21" x1="222.82" y1="202.43" x2="222.82" y2="198.16"/><path class="cls-20" d="M221.35,197.27c0-1.08.66-2,1.47-2s1.46.87,1.46,2-.65,2-1.46,2S221.35,198.35,221.35,197.27Z"/><line class="cls-21" x1="222.82" y1="196.03" x2="222.82" y2="191.76"/><path class="cls-20" d="M221.35,190.87c0-1.08.66-2,1.47-2s1.46.87,1.46,2-.65,2-1.46,2S221.35,192,221.35,190.87Z"/><line class="cls-21" x1="222.82" y1="189.63" x2="222.82" y2="185.36"/><path class="cls-20" d="M221.35,184.47c0-1.08.66-1.95,1.47-1.95s1.46.87,1.46,1.95-.65,2-1.46,2S221.35,185.55,221.35,184.47Z"/><line class="cls-21" x1="222.82" y1="183.23" x2="222.82" y2="178.96"/><path class="cls-20" d="M221.35,178.07c0-1.08.66-1.95,1.47-1.95s1.46.87,1.46,1.95-.65,2-1.46,2S221.35,179.15,221.35,178.07Z"/><line class="cls-21" x1="222.82" y1="176.83" x2="222.82" y2="172.56"/><path class="cls-20" d="M221.35,171.12c0-1.08.66-2,1.47-2s1.46.88,1.46,2-.65,1.95-1.46,1.95S221.35,172.2,221.35,171.12Z"/><line class="cls-21" x1="222.82" y1="169.87" x2="222.82" y2="165.61"/><path class="cls-20" d="M221.35,164.72c0-1.08.66-2,1.47-2s1.46.88,1.46,2-.65,1.95-1.46,1.95S221.35,165.8,221.35,164.72Z"/><line class="cls-21" x1="222.82" y1="163.47" x2="222.82" y2="159.21"/><path class="cls-20" d="M221.35,158.32c0-1.08.66-2,1.47-2s1.46.88,1.46,2-.65,2-1.46,2S221.35,159.4,221.35,158.32Z"/><line class="cls-21" x1="222.82" y1="157.07" x2="222.82" y2="152.81"/><path class="cls-20" d="M221.35,151.92c0-1.08.66-2,1.47-2s1.46.88,1.46,2-.65,2-1.46,2S221.35,153,221.35,151.92Z"/><line class="cls-21" x1="222.82" y1="150.68" x2="222.82" y2="146.41"/><path class="cls-20" d="M221.35,145.52c0-1.08.66-2,1.47-2s1.46.88,1.46,2-.65,2-1.46,2S221.35,146.6,221.35,145.52Z"/><line class="cls-21" x1="222.82" y1="144.28" x2="222.82" y2="140.01"/><path class="cls-20" d="M221.35,139.12c0-1.08.66-2,1.47-2s1.46.88,1.46,2-.65,2-1.46,2S221.35,140.2,221.35,139.12Z"/><line class="cls-21" x1="222.82" y1="137.88" x2="222.82" y2="133.61"/><path class="cls-20" d="M221.35,132.72c0-1.08.66-2,1.47-2s1.46.88,1.46,2-.65,2-1.46,2S221.35,133.8,221.35,132.72Z"/><line class="cls-21" x1="222.82" y1="131.48" x2="222.82" y2="127.21"/><path class="cls-20" d="M221.35,126.32c0-1.08.66-2,1.47-2s1.46.88,1.46,2-.65,2-1.46,2S221.35,127.4,221.35,126.32Z"/><line class="cls-21" x1="222.82" y1="125.08" x2="222.82" y2="120.81"/><path class="cls-20" d="M221.35,119.92c0-1.08.66-2,1.47-2s1.46.88,1.46,2-.65,2-1.46,2S221.35,121,221.35,119.92Z"/><line class="cls-21" x1="222.82" y1="118.68" x2="222.82" y2="114.41"/><path class="cls-20" d="M221.35,113.52c0-1.08.66-2,1.47-2s1.46.88,1.46,2-.65,2-1.46,2S221.35,114.6,221.35,113.52Z"/><line class="cls-21" x1="222.82" y1="112.28" x2="222.82" y2="108.01"/><path class="cls-20" d="M221.35,107.12c0-1.08.66-2,1.47-2s1.46.88,1.46,2-.65,2-1.46,2S221.35,108.2,221.35,107.12Z"/><line class="cls-21" x1="222.82" y1="105.88" x2="222.82" y2="101.61"/><path class="cls-20" d="M221.35,100.72c0-1.08.66-2,1.47-2s1.46.88,1.46,2-.65,2-1.46,2S221.35,101.8,221.35,100.72Z"/><line class="cls-21" x1="222.82" y1="99.48" x2="222.82" y2="95.21"/><path class="cls-20" d="M221.35,94.32c0-1.08.66-1.95,1.47-1.95s1.46.87,1.46,1.95-.65,2-1.46,2S221.35,95.4,221.35,94.32Z"/><line class="cls-21" x1="222.82" y1="93.08" x2="222.82" y2="88.81"/><path class="cls-20" d="M221.35,87.92c0-1.08.66-2,1.47-2s1.46.87,1.46,2-.65,2-1.46,2S221.35,89,221.35,87.92Z"/><line class="cls-21" x1="222.82" y1="86.68" x2="222.82" y2="82.41"/><path class="cls-20" d="M221.35,81.52c0-1.08.66-2,1.47-2s1.46.87,1.46,2-.65,2-1.46,2S221.35,82.6,221.35,81.52Z"/><line class="cls-21" x1="222.82" y1="80.28" x2="222.82" y2="76.01"/><path class="cls-20" d="M221.35,75.12c0-1.08.66-2,1.47-2s1.46.87,1.46,2-.65,2-1.46,2S221.35,76.2,221.35,75.12Z"/><line class="cls-21" x1="222.82" y1="73.88" x2="222.82" y2="69.61"/><path class="cls-20" d="M221.35,68.72c0-1.08.66-2,1.47-2s1.46.87,1.46,2-.65,2-1.46,2S221.35,69.8,221.35,68.72Z"/><line class="cls-21" x1="222.82" y1="67.48" x2="222.82" y2="63.21"/><path class="cls-20" d="M221.35,62.32c0-1.08.66-2,1.47-2s1.46.87,1.46,2-.65,2-1.46,2S221.35,63.4,221.35,62.32Z"/><line class="cls-21" x1="222.82" y1="61.08" x2="222.82" y2="56.81"/><path class="cls-20" d="M221.35,55.92c0-1.08.66-2,1.47-2s1.46.87,1.46,2-.65,2-1.46,2S221.35,57,221.35,55.92Z"/><line class="cls-21" x1="222.82" y1="54.68" x2="222.82" y2="50.41"/></g><path class="cls-11" d="M415.15,46.37H84.85a2.77,2.77,0,0,0-2.77,2.77h0a2.77,2.77,0,0,0,2.77,2.77h330.3a2.77,2.77,0,0,0,2.77-2.77h0A2.77,2.77,0,0,0,415.15,46.37Z"/><path class="cls-13" d="M415.15,46.37H84.85a2.77,2.77,0,0,0-2.77,2.77h0a2.77,2.77,0,0,0,2.77,2.77h330.3a2.77,2.77,0,0,0,2.77-2.77h0A2.77,2.77,0,0,0,415.15,46.37Z"/><rect class="cls-11" x="213.84" y="44.71" width="17.96" height="8.86" rx="3"/><rect class="cls-15" x="213.84" y="44.71" width="17.96" height="8.86" rx="3"/><rect class="cls-16" x="224.64" y="44.71" width="7.15" height="8.86" rx="3"/><path class="cls-11" d="M232.8,46.37h-3.36a2.77,2.77,0,0,0-2.78,2.77h0a2.77,2.77,0,0,0,2.78,2.77h3.36Z"/><path class="cls-13" d="M232.8,46.37h-3.36a2.77,2.77,0,0,0-2.78,2.77h0a2.77,2.77,0,0,0,2.78,2.77h3.36Z"/><rect class="cls-11" x="122.03" y="44.71" width="17.96" height="8.86" rx="3"/><rect class="cls-15" x="122.03" y="44.71" width="17.96" height="8.86" rx="3"/><rect class="cls-16" x="132.84" y="44.71" width="7.15" height="8.86" rx="3"/><path class="cls-11" d="M141,46.37h-3.36a2.77,2.77,0,0,0-2.77,2.77h0a2.77,2.77,0,0,0,2.77,2.77H141Z"/><path class="cls-13" d="M141,46.37h-3.36a2.77,2.77,0,0,0-2.77,2.77h0a2.77,2.77,0,0,0,2.77,2.77H141Z"/><rect class="cls-11" x="358.81" y="44.71" width="17.96" height="8.86" rx="3"/><rect class="cls-15" x="358.81" y="44.71" width="17.96" height="8.86" rx="3"/><rect class="cls-16" x="369.62" y="44.71" width="7.15" height="8.86" rx="3"/><path class="cls-11" d="M377.78,46.37h-3.37a2.77,2.77,0,0,0-2.77,2.77h0a2.77,2.77,0,0,0,2.77,2.77h3.37Z"/><path class="cls-13" d="M377.78,46.37h-3.37a2.77,2.77,0,0,0-2.77,2.77h0a2.77,2.77,0,0,0,2.77,2.77h3.37Z"/><rect class="cls-11" x="267.01" y="44.71" width="17.96" height="8.86" rx="3"/><rect class="cls-15" x="267.01" y="44.71" width="17.96" height="8.86" rx="3"/><rect class="cls-16" x="277.82" y="44.71" width="7.15" height="8.86" rx="3"/><path class="cls-11" d="M286,46.37h-3.36a2.78,2.78,0,0,0-2.78,2.77h0a2.78,2.78,0,0,0,2.78,2.77H286Z"/><path class="cls-13" d="M286,46.37h-3.36a2.78,2.78,0,0,0-2.78,2.77h0a2.78,2.78,0,0,0,2.78,2.77H286Z"/><path class="cls-11" d="M417.92,33.94h0A11.89,11.89,0,0,0,406,45.83V361.29h23.79V45.83A11.89,11.89,0,0,0,417.92,33.94Z"/><path class="cls-15" d="M417.92,33.94h0A11.89,11.89,0,0,0,406,45.83V361.29h23.79V45.83A11.89,11.89,0,0,0,417.92,33.94Z"/><g class="cls-22"><path class="cls-23" d="M70.18,45.83V361.29h5.76V45.83A11.9,11.9,0,0,1,85,34.3,11.87,11.87,0,0,0,70.18,45.83Z"/></g><g class="cls-22"><path class="cls-23" d="M417.92,33.94A11.89,11.89,0,0,0,406,45.83V361.29h5.75V45.83a11.89,11.89,0,0,1,9-11.53,11.83,11.83,0,0,0-2.88-.36Z"/></g></g></g></svg>