<svg xmlns="http://www.w3.org/2000/svg" viewBox="0 0 611.19 484.44"><defs><style>.cls-1,.cls-7{fill:#cbb1ff;}.cls-1{opacity:0.3;}.cls-2{fill:#d4ccff;}.cls-3{fill:#a796ff;}.cls-4{fill:#f6d6fa;}.cls-5{fill:#fef3f9;}.cls-6{fill:#7862ec;}.cls-8{fill:#fff;}.cls-9{fill:#5065fc;}.cls-10{fill:#ccdbff;}.cls-11{fill:#f38346;}.cls-12{fill:#96b3ff;}.cls-13{fill:#f4d37e;}.cls-14{fill:#222d3c;}.cls-15{fill:#1a0845;}.cls-16{fill:#d1d3d4;}.cls-17{fill:#628aec;}.cls-18{fill:#233248;}.cls-19{fill:#eaad00;}.cls-20{fill:#fccf17;}.cls-21{fill:#380f8f;}.cls-22{fill:#8550fc;}.cls-23{fill:#fc8e53;}.cls-24{fill:#232323;}</style></defs><title>Asset 1</title><g id="Layer_2" data-name="Layer 2"><g id="design"><path class="cls-1" d="M594.1,255.24c-28.42-35.63-82.72-40.8-116.83-71C440.33,151.56,430.72,105.36,399,67.6c-13.24-15.75-28.32-38.07-46.32-48.38C336.44,9.94,318.94,1.84,299.48.27c-24.39-2-50.89,7-71.09,24.07-19.88,16.79-34.2,41.09-57.25,52.41-28.95,14.21-60,4-88.32,2-33.06-2.42-67.35,16.71-78.59,49-5,14.45-5.06,30.25-2.74,45.38,2.36,15.41,7.35,31,17.12,43.4,10.32,13.07,23.94,23,33,37.26,10.74,16.88,9.87,39.65,6.34,61s-9.43,42.9-7.66,63.73C52.88,409,73.34,435.22,101.9,444.5c36.66,11.93,79.53-3.08,118.5-18.57,34.89-13.87,75.19-30.11,111.61-27.51,38.41,2.74,70.08,28.15,106.58,36.59,46.72,10.81,103.43-4.64,139.27-43.37S623,291.47,594.1,255.24Z"/><path class="cls-2" d="M511.74,242.15l-.52-.78,5.07-3.46.54.77C515.18,239.87,513.46,241,511.74,242.15Z"/><path class="cls-2" d="M454.1,257.06l2.38-14.42,1-2.13c6.24-13.56,12.14-26.36,19.14-37.58l1-1.6-.13,1.88q-.42,5.91-.3,10.37c.45-3.9,1.19-9.48,2.25-14.91l.07-.17a103.32,103.32,0,0,1,26-27l1.11-.8-.38,1.31a153.41,153.41,0,0,0-4.87,21c1.85-6.53,5.33-17.82,9.1-24.83l.06-.11.1-.07,2.8-1.8c3.53-2.29,3.81-2.48,10.88-5.29l1-.38-.34,1a140,140,0,0,0-4.93,17.1,182.22,182.22,0,0,1,7.74-18.88l.08-.16.18-.07c1.54-.57,3.72-1.42,6.22-2.4,7.11-2.77,16.84-6.56,22.1-8l.37-.1.17.34c.2.42,4.95,10.38-2.13,33.45l-.05.18-.16.09c-1.56.89-3.18,2-4.9,3.07-2.24,1.47-4.64,3-7.34,4.54,2.76-1.11,6.22-2.57,10.52-4.48l1-.44-.35,1c-.71,2-1.36,4.13-2.06,6.35-2.45,7.88-5,16-10.25,22.76l-.11.14-.17,0a47.1,47.1,0,0,1-5.51.64c-2.54.2-5.73.45-10.38,1.18H525c4.21,0,9.08.46,11.81,2.27l.46.3-.37.4a132.55,132.55,0,0,1-20,17.71l-.16.08-11.91,2.78,8.14-.13-1.37.89c-13.1,8.46-26.17,13.39-38.84,14.68ZM457.36,243l-2.16,13.13,17.5-.12c12-1.22,24.48-5.81,37-13.64l-13.54.21,20.28-4.74a132.19,132.19,0,0,0,19.4-17.11c-5.41-3-18.35-1.39-18.49-1.37l-.15-.92a129.49,129.49,0,0,1,18.06-2.58,46.8,46.8,0,0,0,5.23-.6c5.08-6.58,7.57-14.58,10-22.32.58-1.87,1.13-3.64,1.71-5.37-15.26,6.75-19.44,7.54-19.61,7.57l-.24-.9c7.07-2.47,12.22-5.84,16.76-8.8,1.67-1.09,3.25-2.12,4.78-3,6.17-20.2,3-30.28,2.27-32.23-5.28,1.47-14.69,5.13-21.6,7.83-2.41.94-4.53,1.76-6.06,2.33A209.69,209.69,0,0,0,519.13,184l-1.31,4.1.4-4.28c.6-6.4,3.23-15.1,5.46-21.6-6.07,2.42-6.48,2.69-9.77,4.83l-2.7,1.74c-5.45,10.21-10.3,29.44-10.35,29.63l-1,4.15.12-4.28c.21-7.57,3.05-18.55,5-25.21a102.75,102.75,0,0,0-24.59,25.88c-1.87,9.68-2.75,19.81-2.75,19.91l-.36,4.19-.57-4.16a73.78,73.78,0,0,1-.23-13.85c-6.54,10.78-12.17,23-18.1,35.87Z"/><path class="cls-2" d="M454.88,257l-.45-.83c42.92-23.56,88.81-91.29,89.27-92l.78.53C544,165.41,498,233.32,454.88,257Z"/><path class="cls-3" d="M166.91,118.58a.51.51,0,0,1-.17,0,.42.42,0,0,1-.21-.54c.26-.62.52-1.25.75-1.88a.41.41,0,1,1,.77.28c-.24.65-.5,1.29-.77,1.93A.39.39,0,0,1,166.91,118.58Z"/><path class="cls-3" d="M86.76,188.17c-1,0-1.89,0-2.84,0a.41.41,0,0,1-.4-.42.41.41,0,0,1,.42-.4c1.36,0,2.72,0,4.09,0h0a.42.42,0,0,1,.41.41.41.41,0,0,1-.41.41Zm5.38-.08a.42.42,0,0,1-.41-.4.4.4,0,0,1,.4-.42c1.36,0,2.73-.1,4.09-.16a.4.4,0,0,1,.43.39.41.41,0,0,1-.39.43c-1.37.06-2.74.12-4.11.16ZM79.83,188h0c-1.39-.06-2.78-.15-4.11-.25a.41.41,0,1,1,.06-.82c1.33.11,2.7.19,4.09.25a.42.42,0,0,1,.39.43A.41.41,0,0,1,79.83,188Zm20.51-.31a.41.41,0,0,1-.41-.38.42.42,0,0,1,.38-.44c1.37-.08,2.74-.18,4.09-.28a.41.41,0,0,1,.07.82c-1.37.1-2.73.2-4.1.28Zm-28.69-.33H71.6c-1.39-.16-2.76-.35-4.08-.56a.4.4,0,0,1-.34-.47.41.41,0,0,1,.47-.34c1.3.21,2.66.39,4,.55a.42.42,0,0,1,.36.45A.43.43,0,0,1,71.65,187.37Zm-8.1-1.28h-.09c-1.37-.28-2.72-.59-4-.93a.41.41,0,0,1,.2-.8c1.28.34,2.62.65,4,.93a.41.41,0,0,1,.32.48A.42.42,0,0,1,63.55,186.09ZM55.61,184l-.13,0c-1.32-.43-2.63-.9-3.88-1.39a.41.41,0,1,1,.3-.76c1.23.48,2.53,1,3.84,1.37a.41.41,0,0,1,.26.51A.41.41,0,0,1,55.61,184ZM48,181a.39.39,0,0,1-.18,0c-1.25-.59-2.48-1.24-3.66-1.91a.4.4,0,0,1-.15-.56.41.41,0,0,1,.56-.16c1.16.67,2.37,1.3,3.6,1.89a.41.41,0,0,1,.2.55A.4.4,0,0,1,48,181Zm-7.11-4.08a.44.44,0,0,1-.24-.07c-1.13-.78-2.25-1.61-3.31-2.47a.41.41,0,0,1-.06-.58.42.42,0,0,1,.58-.06c1,.85,2.14,1.67,3.26,2.43a.42.42,0,0,1,.11.57A.41.41,0,0,1,40.88,176.92Zm-6.37-5.17a.38.38,0,0,1-.28-.11c-.7-.67-1.39-1.37-2-2.08-.28-.3-.55-.6-.82-.91a.41.41,0,1,1,.62-.54c.26.3.53.6.8.89.65.7,1.32,1.39,2,2.05a.41.41,0,0,1,0,.58A.42.42,0,0,1,34.51,171.75Zm-5.42-6.14a.4.4,0,0,1-.33-.17c-.84-1.12-1.62-2.28-2.32-3.42a.42.42,0,0,1,.13-.57.41.41,0,0,1,.57.14c.68,1.12,1.45,2.26,2.28,3.36a.43.43,0,0,1-.09.58A.43.43,0,0,1,29.09,165.61Zm-4.25-7a.39.39,0,0,1-.37-.23,34.94,34.94,0,0,1-1.55-3.86.41.41,0,0,1,.26-.51.4.4,0,0,1,.52.26A32.08,32.08,0,0,0,25.21,158a.4.4,0,0,1-.2.54A.33.33,0,0,1,24.84,158.6Zm-2.56-7.77a.4.4,0,0,1-.4-.34,29.67,29.67,0,0,1-.49-4.13.42.42,0,0,1,.39-.43.41.41,0,0,1,.43.39,31.3,31.3,0,0,0,.47,4,.41.41,0,0,1-.33.48Zm-.4-8.18h0a.41.41,0,0,1-.38-.44,34.51,34.51,0,0,1,.6-4.11.41.41,0,1,1,.8.17,34.9,34.9,0,0,0-.58,4A.41.41,0,0,1,21.88,142.65Zm1.66-8a.27.27,0,0,1-.13,0,.41.41,0,0,1-.26-.52,38.9,38.9,0,0,1,1.5-3.86.42.42,0,0,1,.55-.2.41.41,0,0,1,.2.54,38.82,38.82,0,0,0-1.47,3.78A.42.42,0,0,1,23.54,134.63Zm3.36-7.47a.54.54,0,0,1-.21,0,.43.43,0,0,1-.15-.57c.69-1.18,1.44-2.35,2.24-3.48a.41.41,0,1,1,.67.47c-.79,1.11-1.53,2.26-2.2,3.42A.38.38,0,0,1,26.9,127.16Zm4.74-6.69a.41.41,0,0,1-.26-.09.4.4,0,0,1-.05-.58c.9-1,1.86-2.06,2.85-3a.4.4,0,0,1,.58,0,.42.42,0,0,1,0,.58c-1,.93-1.92,1.93-2.8,3A.38.38,0,0,1,31.64,120.47Zm5.9-5.69a.41.41,0,0,1-.32-.15.42.42,0,0,1,.06-.58c1.06-.85,2.18-1.68,3.32-2.47a.42.42,0,0,1,.57.11.41.41,0,0,1-.11.57c-1.12.77-2.22,1.59-3.26,2.43A.43.43,0,0,1,37.54,114.78Zm131.38-2h-.11a.42.42,0,0,1-.29-.51c.35-1.29.65-2.63.88-4a.41.41,0,1,1,.81.14c-.24,1.36-.54,2.72-.9,4A.41.41,0,0,1,168.92,112.77ZM44.3,110.13a.41.41,0,0,1-.21-.76c1.17-.69,2.39-1.35,3.63-2a.41.41,0,0,1,.37.73c-1.23.62-2.44,1.27-3.59,2A.35.35,0,0,1,44.3,110.13Zm7.32-3.68a.4.4,0,0,1-.37-.25.41.41,0,0,1,.21-.54c1.24-.53,2.53-1,3.84-1.52a.4.4,0,0,1,.52.24.41.41,0,0,1-.24.53c-1.29.47-2.57,1-3.79,1.51A.51.51,0,0,1,51.62,106.45Zm118.73-1.75h0a.41.41,0,0,1-.37-.45c.12-1.34.18-2.7.19-4.06a.41.41,0,0,1,.41-.41h0a.41.41,0,0,1,.41.41c0,1.38-.07,2.77-.2,4.14A.4.4,0,0,1,170.35,104.7Zm-111-1.09a.41.41,0,0,1-.39-.29.42.42,0,0,1,.27-.51c1.28-.4,2.61-.79,4-1.15a.41.41,0,0,1,.5.29.41.41,0,0,1-.29.5c-1.34.36-2.66.74-3.92,1.14Zm7.93-2.14a.41.41,0,0,1-.4-.32.41.41,0,0,1,.31-.49c1.3-.3,2.65-.58,4-.85a.41.41,0,0,1,.49.32.42.42,0,0,1-.33.48c-1.36.27-2.71.56-4,.85Zm8-1.6a.42.42,0,0,1-.41-.33.41.41,0,0,1,.33-.48c1.34-.24,2.69-.49,4-.77a.41.41,0,0,1,.48.32.4.4,0,0,1-.31.48c-1.35.28-2.71.53-4,.78Zm8-1.68a.41.41,0,0,1-.39-.31.4.4,0,0,1,.29-.5c1.43-.37,2.7-.76,3.89-1.18a.41.41,0,1,1,.28.78c-1.22.43-2.52.82-4,1.19Zm87.06-1.69a.41.41,0,0,1-.41-.38c-.1-1.34-.26-2.7-.47-4a.4.4,0,0,1,.34-.47.41.41,0,0,1,.47.34c.21,1.36.38,2.74.48,4.11a.41.41,0,0,1-.38.44ZM91,95.4a.4.4,0,0,1-.37-.23.42.42,0,0,1,.18-.55,23.08,23.08,0,0,0,3.43-2.11.41.41,0,0,1,.49.65,23.72,23.72,0,0,1-3.55,2.2A.58.58,0,0,1,91,95.4Zm6.48-5a.44.44,0,0,1-.27-.09.41.41,0,0,1,0-.58l.51-.63a18.2,18.2,0,0,0,1.75-2.68.41.41,0,0,1,.72.39,20,20,0,0,1-1.82,2.79l-.54.66A.39.39,0,0,1,97.52,90.45Zm71.59-2a.43.43,0,0,1-.4-.31c-.31-1.32-.68-2.64-1.1-3.92a.41.41,0,0,1,.26-.52.41.41,0,0,1,.52.26c.42,1.31.8,2.65,1.12,4a.41.41,0,0,1-.3.5Zm-67.63-5.08a.34.34,0,0,1-.14,0,.42.42,0,0,1-.25-.53c.4-1.12.78-2.35,1.2-3.89a.41.41,0,0,1,.5-.29.42.42,0,0,1,.29.51c-.42,1.55-.81,2.81-1.22,4A.4.4,0,0,1,101.48,83.32Zm65.09-2.72a.41.41,0,0,1-.38-.25c-.52-1.25-1.1-2.49-1.72-3.69a.41.41,0,0,1,.18-.55.4.4,0,0,1,.55.18c.63,1.21,1.22,2.47,1.75,3.75a.4.4,0,0,1-.22.53A.45.45,0,0,1,166.57,80.6ZM103.7,75.42h-.1a.41.41,0,0,1-.3-.5c.32-1.27.67-2.63,1.08-4a.41.41,0,0,1,.78.24c-.4,1.33-.75,2.68-1.07,3.94A.39.39,0,0,1,103.7,75.42Zm59.11-2.1a.42.42,0,0,1-.35-.19c-.72-1.16-1.5-2.28-2.3-3.36a.41.41,0,0,1,.65-.49c.82,1.09,1.61,2.24,2.35,3.41a.42.42,0,0,1-.13.57A.46.46,0,0,1,162.81,73.32ZM106.15,67.6a.41.41,0,0,1-.38-.57,26.45,26.45,0,0,1,1.23-2.5c.23-.41.47-.8.73-1.19a.41.41,0,0,1,.57-.11.39.39,0,0,1,.11.56q-.36.57-.69,1.14a23.69,23.69,0,0,0-1.19,2.42A.41.41,0,0,1,106.15,67.6Zm51.73-.83a.43.43,0,0,1-.31-.14c-.91-1-1.87-2-2.85-2.89a.41.41,0,1,1,.56-.6c1,.92,2,1.91,2.9,2.94a.41.41,0,0,1,0,.58A.4.4,0,0,1,157.88,66.77Zm-6-5.56a.38.38,0,0,1-.25-.09c-1.08-.82-2.2-1.6-3.34-2.32a.41.41,0,0,1-.13-.56.42.42,0,0,1,.57-.13c1.15.72,2.3,1.52,3.4,2.36a.41.41,0,0,1,.07.58A.42.42,0,0,1,151.86,61.21Zm-41.22-.42a.4.4,0,0,1-.29-.12.42.42,0,0,1,0-.58,24.32,24.32,0,0,1,3.16-2.72.4.4,0,0,1,.57.09A.4.4,0,0,1,114,58a24.22,24.22,0,0,0-3,2.63A.39.39,0,0,1,110.64,60.79Zm34.27-3.93a.41.41,0,0,1-.18,0c-1.22-.6-2.48-1.15-3.72-1.62a.4.4,0,0,1,.28-.76,37.29,37.29,0,0,1,3.8,1.65.41.41,0,0,1,.19.55A.42.42,0,0,1,144.91,56.86ZM117.25,56a.4.4,0,0,1-.37-.23.41.41,0,0,1,.18-.55,27.54,27.54,0,0,1,3.85-1.58.41.41,0,0,1,.52.26.42.42,0,0,1-.27.52,27,27,0,0,0-3.73,1.53A.41.41,0,0,1,117.25,56Zm20-2h-.1a32.67,32.67,0,0,0-4-.73.4.4,0,0,1-.36-.45.41.41,0,0,1,.46-.36,34.66,34.66,0,0,1,4.08.74.42.42,0,0,1,.3.5A.41.41,0,0,1,137.23,54ZM125,53.43a.42.42,0,0,1-.41-.34.42.42,0,0,1,.34-.47,28.07,28.07,0,0,1,4-.38h.19a.42.42,0,0,1,0,.83h-.17a26.27,26.27,0,0,0-3.85.37Z"/><path class="cls-3" d="M108.63,187.08a.41.41,0,0,1-.41-.38.41.41,0,0,1,.37-.44l2-.18a.42.42,0,0,1,.45.37.41.41,0,0,1-.37.45l-2,.18Z"/><path class="cls-3" d="M124.69,190.1a3.81,3.81,0,0,1-3.37.05l-.16-.09-7.45-3.81a.68.68,0,0,1-.29-.92l3.79-7.42.11-.22a3.79,3.79,0,1,1,5.5,4.93.18.18,0,0,0,.11.33,3.78,3.78,0,0,1,1.76,7.15Z"/><path class="cls-4" d="M474.11,161.3c1.25-1.62,2.44-3.26,3.58-4.9Z"/><path class="cls-4" d="M464.08,165.18l13.66-8.84a135.86,135.86,0,0,0,12.84-23c-5.94-1.51-18.24,4.76-18.24,4.76,12.17-7.43,16.55-8.32,20.55-10.74,3.48-10.19,2.17-21.42,2.26-31-12.64,12.07-16.34,14.19-16.34,14.19,8-6.47,12.13-13.43,16.3-18.3-.64-23.92-8.27-31.54-8.27-31.54-5.91,4.08-18,15-22.76,19A207.33,207.33,0,0,0,462.8,105c-1.49-6.41-1.72-15.92-1.65-22.82-6.8,6-5.63,5.09-10.31,11.06-1.91,11.48-.36,31.25-.36,31.25-2.28-7.53-3-19.65-3.26-26.37a105.46,105.46,0,0,0-15.44,33.58c1.3,9.8,3.66,19.6,3.66,19.6a80.67,80.67,0,0,1-4.93-14.53c-3.1,13.39-4.51,27.69-6.19,43.57l2.19,13.55,16.54-6.08c12.53-6,22.87-15.88,30.95-26.35Z"/><path class="cls-5" d="M445.07,165.72c-2.32,4.33-4.73,8.62-7.37,12.76a77,77,0,0,1-8.88,11.7l-.16-.15a76.9,76.9,0,0,0,8.48-11.9c2.5-4.2,4.78-8.53,6.95-12.92,4.36-8.75,8.32-17.71,12.26-26.68s7.66-18,12-26.88c2.15-4.41,4.37-8.8,6.73-13.11s4.85-8.56,7.55-12.66l.19.11c-4.35,8.8-8.44,17.67-12.47,26.59s-8.24,17.76-12.37,26.66S449.65,157,445.07,165.72Z"/><path class="cls-2" d="M499.08,327q2.26-1.62,4.38-3.3Z"/><path class="cls-2" d="M488.74,327.3l14.77-3.66a105.61,105.61,0,0,0,16.75-16.78c-5.39-3.27-18.36-1.52-18.36-1.52,13.07-2.84,17.43-2.25,21.72-3.16,5.31-8.14,6.23-18.75,8.18-27.44-14.42,6.9-18.38,7.64-18.38,7.64,8.9-3.31,14.21-8.31,19.14-11.39,4-21.92-1.79-31.28-1.79-31.28-6.44,1.82-20.1,7.82-25.43,9.94a175.64,175.64,0,0,0-6.15,22.59c-.18-6.29,1.44-15,2.85-21.23-7.66,3.26-6.37,2.81-12,6.73-4.05,9.81-6.4,28.25-6.4,28.25-.72-7.56.92-18.79,2-25a82.35,82.35,0,0,0-21.27,25.54c-.66,9.3-.31,18.95-.31,18.95a79.28,79.28,0,0,1-1.89-14.76c-5.56,11.16-9.69,23.68-14.37,37.57l-.54,13,17-.22c13.14-1.43,24.95-7.09,34.7-14Z"/><path class="cls-5" d="M470.47,321.7c-3.06,3.2-6.2,6.31-9.53,9.23a61.22,61.22,0,0,1-10.75,7.78l-.12-.2a61,61,0,0,0,10.41-8.08c3.2-3,6.22-6.22,9.15-9.5,5.87-6.55,11.39-13.41,16.89-20.3s10.83-13.93,16.67-20.56c2.91-3.31,5.88-6.59,9-9.75s6.3-6.22,9.68-9.07l.16.16c-5.87,6.59-11.5,13.34-17.08,20.14s-11.33,13.49-17,20.25S476.53,315.28,470.47,321.7Z"/><path class="cls-3" d="M488.17,361.54c15.23,4.56,21.35,7.53,26.75,7.75a102.73,102.73,0,0,0,22.22-26.81c-19.63,3.71-31.11-1.94-31.11-1.94,12.52,3.12,26.44-.08,33.43-2.19a150.84,150.84,0,0,0,15.9-48.09c-8.29.19-15.94.73-23,1.59-8,10.24-15.84,24.45-15.84,24.45,2.18-7.37,7.41-17,11.44-23.86A145.16,145.16,0,0,0,500.47,299c-8.5,10.2-18.29,31-18.29,31,2-9,8.24-21.6,11.86-28.47a111,111,0,0,0-34.79,23.34c-4.32,10.64-7.57,22-7.57,22a95.37,95.37,0,0,1,3.38-17.75c-10.8,11.32-20.42,24.66-31.22,39.42l-5.58,15,20.11,4.84c31,4.4,53.9-2.6,70.8-14.56C504.07,368.31,488.17,361.54,488.17,361.54Z"/><path class="cls-6" d="M422.63,381A81.33,81.33,0,0,0,438,374.75c4.92-2.54,9.7-5.36,14.39-8.31,9.42-5.86,18.54-12.19,27.65-18.55s18.05-13,27.46-18.93c4.7-3,9.44-5.91,14.29-8.65s9.79-5.35,14.86-7.66l.13.24c-9.43,5.91-18.63,12.07-27.8,18.32s-18.48,12.29-27.73,18.46-18.56,12.27-28.16,17.92c-4.81,2.81-9.7,5.49-14.73,7.89a81.82,81.82,0,0,1-15.65,5.82Z"/><path class="cls-4" d="M144.71,260.56q-1.08-2.88-2.28-5.63Z"/><path class="cls-4" d="M142.39,271.42V254.86a125.22,125.22,0,0,0-13-22.9c-4.74,4.54-6.24,18.62-6.24,18.62.41-14.54,2.12-18.89,2.28-23.65-7-8.18-17.69-12.59-26.13-17.46,3.42,17.27,3.18,21.63,3.18,21.63-1.14-10.35-4.93-17.5-6.84-23.64C74.15,196.13,63,199.13,63,199.13c.23,7.3,2.92,23.48,3.73,29.72a200,200,0,0,0,21.67,13.76c-6.51-1.86-15-6.38-21.11-9.88,1.4,9,1.27,7.55,3.87,14.69,9,7.4,27.42,15.86,27.42,15.86-8-1.72-19.1-7.09-25.18-10.21a98.06,98.06,0,0,0,20.84,30.46c9.41,3.72,19.42,6.49,19.42,6.49A83.92,83.92,0,0,1,98,287.18c10.06,9.43,21.89,17.8,35,27.2l13.22,4.79,4.1-17.75c1.88-14.15-.93-28.29-5.56-40.69Z"/><path class="cls-7" d="M132,288.63c2.51,4.22,4.91,8.5,7.06,12.92a71.74,71.74,0,0,1,5.25,13.73l-.22.06a71.71,71.71,0,0,0-5.67-13.47c-2.28-4.32-4.8-8.5-7.43-12.62-5.24-8.24-10.89-16.23-16.56-24.2S102.84,249.24,97.51,241c-2.67-4.11-5.28-8.27-7.74-12.52s-4.79-8.58-6.86-13l.21-.11c5.28,8.26,10.78,16.31,16.36,24.34s11,16.19,16.48,24.29S126.92,280.22,132,288.63Z"/><path class="cls-3" d="M123.47,323.87c.15-17.51,1.41-24.89,0-30.67a113.69,113.69,0,0,0-35.18-15.29c10,19.64,7.49,33.51,7.49,33.51-.53-14.21-8.2-27.95-12.57-34.69a165.88,165.88,0,0,0-55.74-2.07c2.73,8.71,5.65,16.63,8.74,23.87,13.27,5.27,30.73,9.26,30.73,9.26-8.48-.05-20.28-2.61-28.76-4.78a158.42,158.42,0,0,0,15.4,27c13.4,5.86,38.36,9.85,38.36,9.85-10.17.62-25.38-2.09-33.75-3.8a122.42,122.42,0,0,0,35.36,29.64C106.12,367,119.11,367,119.11,367c-5.6,1.26-13,1.74-19.82,1.86,15.28,8,32.35,14,51.27,20.94l17.54,1.32-1-22.76c-4.85-34.14-19.28-56.23-37.12-70.44C125.75,305,123.47,323.87,123.47,323.87Z"/><path class="cls-6" d="M164.2,387.23a88.53,88.53,0,0,0-11.36-14.31c-4.2-4.43-8.65-8.62-13.2-12.68-9.09-8.16-18.59-15.87-28.11-23.56s-19.26-15.12-28.45-23.24c-4.6-4.06-9.15-8.18-13.54-12.47s-8.66-8.71-12.66-13.36l.21-.21c9.15,8.15,18.49,16,27.91,23.78s18.68,15.78,28,23.68,18.67,15.87,27.6,24.29c4.44,4.23,8.78,8.58,12.86,13.17a89.79,89.79,0,0,1,11,14.76Z"/><path class="cls-3" d="M298.59,64.07c.12-13.37,1.08-19,0-23.41A86.58,86.58,0,0,0,271.73,29c7.6,15,5.72,25.58,5.72,25.58-.41-10.84-6.26-21.33-9.6-26.48a126.57,126.57,0,0,0-42.55-1.58c2.09,6.65,4.32,12.7,6.67,18.22a190.46,190.46,0,0,0,23.46,7.07c-6.47,0-15.48-2-22-3.65a121.66,121.66,0,0,0,11.75,20.63c10.23,4.47,29.28,7.52,29.28,7.52-7.76.47-19.37-1.6-25.76-2.91a93.36,93.36,0,0,0,27,22.63c9.6,1,19.51,1,19.51,1a80.4,80.4,0,0,1-15.13,1.42c11.67,6.07,24.7,10.72,39.15,16l13.38,1L331.86,98c-3.7-26-14.72-42.92-28.33-53.76C300.34,49.65,298.59,64.07,298.59,64.07Z"/><path class="cls-6" d="M329.69,112.44A68.61,68.61,0,0,0,321,101.51c-3.21-3.38-6.61-6.57-10.08-9.68-6.94-6.23-14.19-12.11-21.46-18s-14.7-11.55-21.72-17.75c-3.51-3.1-7-6.24-10.33-9.51s-6.61-6.65-9.67-10.21l.17-.16c7,6.23,14.11,12.22,21.3,18.16s14.26,12,21.4,18.07S304.89,84.58,311.7,91c3.39,3.23,6.7,6.55,9.82,10a69.12,69.12,0,0,1,8.36,11.27Z"/><path class="cls-4" d="M319,102.23,319.11,82c2-26.6,9-47,20.76-60.7l.5-.57.29.7c1.27,3,2.33,8.28,3.09,13-.06-1.33-.13-2.55-.18-3.69-.32-6.21-.52-10-.05-13.17l0-.16.12-.11a55.55,55.55,0,0,1,20.8-12.65l.88-.3-.29.88a80.29,80.29,0,0,0-3.78,18.62A88.83,88.83,0,0,1,367.18,4l.09-.21.21-.06a69.24,69.24,0,0,1,33.39-.64l.42.11-.08.43c-1.43,7.37-3,14.29-4.72,20.58l-.06.19-.17.09a100.41,100.41,0,0,1-14.83,6.34,69.75,69.75,0,0,0,13.37-3.34l.85-.29-.25.86a154.27,154.27,0,0,1-8.63,23.22l-.06.13-.12.07c-5.58,3.42-14.46,5.87-19.33,7a76.62,76.62,0,0,0,16.34-2.75l1-.28-.51,1a81.29,81.29,0,0,1-20.56,25.14l-.11.09-.13,0a105.34,105.34,0,0,1-11.67.62,54.66,54.66,0,0,0,8.29,1l1.29.07-1,.77c-8.53,6.29-18.25,11.18-28.53,16.35l-1.81.87Zm21.13-79.75C328.71,36,322,56,320.05,82l-.15,19.21,9.81-.74,1.55-.78c9.83-4.94,19.14-9.62,27.35-15.51a41.11,41.11,0,0,1-10.68-2l-2.83-1,3,.12a112.35,112.35,0,0,0,15-.56,79.89,79.89,0,0,0,19.7-23.83c-5.07,1.3-13.39,3-19.13,2.35l-2.89-.36,2.85-.57c.15,0,14.64-3,22.36-7.63a151.62,151.62,0,0,0,8.27-22.09c-4.94,1.64-11.48,3.44-16.33,3.3L375,31.85,377.8,31a110.49,110.49,0,0,0,17.84-7.27c1.64-6.09,3.18-12.77,4.56-19.89A68.86,68.86,0,0,0,368,4.54C365.44,10.46,361.33,22,361.31,34l-.93.07c0-.12-1.64-12,3.49-28.26a54.73,54.73,0,0,0-19.45,12c-.42,3.09-.23,6.78.08,12.83.18,3.56.41,8,.58,13.57l-.93.06C344.13,44.15,342.5,29,340.08,22.48Z"/><path class="cls-4" d="M321.36,98.78l-.4-.34.11-.31a79.22,79.22,0,0,1,6.26-12.67c2.1-3.5,4.45-7.06,7.4-11.2,5-7,10.2-13.42,15.95-20.54q2.82-3.48,5.63-7c3.45-4.29,7-8.73,10.58-13C371.67,28,377.33,21.08,383,13.67l.74.57c-5.68,7.42-11.34,14.32-16.13,20.1-3.56,4.26-7.13,8.7-10.57,13q-2.82,3.49-5.63,7c-5.74,7.1-10.9,13.55-15.92,20.5-2.93,4.11-5.27,7.65-7.36,11.14A77.22,77.22,0,0,0,322,98.46l-.23-.09Z"/><path class="cls-4" d="M164.31,167.56l-16.09-.28c-21-1.75-37.08-7.41-47.82-16.85l-.56-.49.69-.29a45.3,45.3,0,0,1,8.66-2.09l-1.24.05c-4.91.21-7.87.34-10.41-.06l-.16,0-.11-.12a43.92,43.92,0,0,1-9.86-16.54l-.29-.89.89.3a64.24,64.24,0,0,0,12.38,2.87A72,72,0,0,1,87,128.77l-.2-.09-.06-.21a54.75,54.75,0,0,1-.27-26.41l.12-.42.42.08c5.82,1.18,11.27,2.49,16.22,3.88l.19.05.1.18a76,76,0,0,1,4.58,10.84,58.45,58.45,0,0,0-2.41-9.59l-.28-.85.86.26a120.43,120.43,0,0,1,18.28,7l.12.06.07.11c2.46,4.1,4.25,10.41,5.21,14.39a63.87,63.87,0,0,0-2-11.92l-.27-1.06,1,.53A64.19,64.19,0,0,1,148.31,132l.08.11,0,.13a82.4,82.4,0,0,1,.41,8.27,46.82,46.82,0,0,0,.68-5.58l.09-1.29.76,1.05c4.91,6.78,8.7,14.49,12.71,22.65l.68,1.47Zm-62.7-17.32c10.58,9,26.27,14.41,46.66,16.11l15,.26-.5-7.63-.59-1.21c-3.79-7.7-7.37-15-11.88-21.47a32.6,32.6,0,0,1-1.62,8.17l-1.05,2.83.15-3a89.48,89.48,0,0,0-.33-11.79,63.09,63.09,0,0,0-18.42-15.56c1,4,2.25,10.47,1.66,14.94l-.38,2.88-.55-2.86c0-.11-2.22-11.52-5.83-17.64a119,119,0,0,0-17.15-6.62c1.24,3.9,2.56,9,2.42,12.77l-.1,2.91-.81-2.8a88.59,88.59,0,0,0-5.58-14.07c-4.75-1.33-10-2.58-15.53-3.72A54.33,54.33,0,0,0,87.54,128c4.66,2,13.68,5.33,23.14,5.43l.06.94c-.1,0-9.39,1.2-22.14-2.91a43.16,43.16,0,0,0,9.24,15.19c2.42.35,5.32.23,10.07,0,2.81-.12,6.31-.27,10.72-.36l.05.93C118.56,147.27,106.87,148.42,101.61,150.24Z"/><path class="cls-4" d="M161.26,166l-.3-.12a61.88,61.88,0,0,1-10-5c-2.75-1.68-5.55-3.56-8.8-5.93-5.49-4-10.54-8.16-16.1-12.74l-5.47-4.49c-3.36-2.76-6.84-5.6-10.19-8.45-4.52-3.82-9.92-8.33-15.72-12.85l.58-.74c5.81,4.53,11.22,9,15.75,12.88,3.34,2.84,6.81,5.68,10.17,8.44,1.83,1.49,3.66,3,5.47,4.49,5.55,4.57,10.6,8.68,16.07,12.71,3.22,2.34,6,4.21,8.73,5.88a61.23,61.23,0,0,0,9.81,5l-.1.27.39.35Z"/><path class="cls-8" d="M450.12,103.33V362.39a32.78,32.78,0,0,1-32.77,32.78h-244a32.78,32.78,0,0,1-32.78-32.78V103.33a32.79,32.79,0,0,1,32.78-32.45h244A32.78,32.78,0,0,1,450.12,103.33Z"/><path class="cls-9" d="M450.12,103.33H140.57a32.79,32.79,0,0,1,32.78-32.45h244A32.78,32.78,0,0,1,450.12,103.33Z"/><path class="cls-8" d="M179.77,87.11a6,6,0,1,0-6,6A6,6,0,0,0,179.77,87.11Z"/><path class="cls-8" d="M198.34,87.11a6,6,0,1,0-6,6A6,6,0,0,0,198.34,87.11Z"/><path class="cls-8" d="M216.9,87.11a6,6,0,1,0-6,6A6,6,0,0,0,216.9,87.11Z"/><path class="cls-8" d="M354,93.09H241.07a6,6,0,0,1-6-6h0a6,6,0,0,1,6-6H354a6,6,0,0,1,6,6h0A6,6,0,0,1,354,93.09Z"/><path class="cls-10" d="M410.11,312.71V301.08A13.07,13.07,0,0,0,397,288H245.43a13.07,13.07,0,0,0-13.07,13.07v35.81A13.07,13.07,0,0,0,245.43,350H397a13.07,13.07,0,0,0,13.07-13.07v-15L426.7,328Z"/><circle class="cls-8" cx="329.53" cy="331.9" r="3.14"/><circle class="cls-8" cx="342.95" cy="331.9" r="3.14"/><circle class="cls-8" cx="356.37" cy="331.9" r="3.14"/><circle class="cls-8" cx="369.8" cy="331.9" r="3.14"/><path class="cls-9" d="M410.11,147.7V136.07A13.07,13.07,0,0,0,397,123H300.52a13.07,13.07,0,0,0-13.07,13.07v35.81A13.07,13.07,0,0,0,300.52,185H397a13.07,13.07,0,0,0,13.07-13.07v-15L426.7,163Z"/><rect class="cls-8" x="341.62" y="131.27" width="42.47" height="42.47" rx="9.21"/><path class="cls-11" d="M377.91,147.68a7.6,7.6,0,0,1-2,6.46l-.26.25-11.83,11.83a1.37,1.37,0,0,1-1.93,0l-11.79-11.79-.36-.35a7.58,7.58,0,1,1,12.77-7.44.36.36,0,0,0,.69,0,7.57,7.57,0,0,1,14.7,1Z"/><path class="cls-12" d="M186.11,227V215.37a13.07,13.07,0,0,1,13.07-13.07H335.09a13.07,13.07,0,0,1,13.07,13.07v35.81a13.07,13.07,0,0,1-13.07,13.07H199.18a13.07,13.07,0,0,1-13.07-13.07v-15l-16.59,6.17Z"/><rect class="cls-8" x="216.9" y="210.95" width="42.47" height="42.47" rx="9.21"/><path class="cls-9" d="M251.87,225.76c-3.24-2.06-13.05,1.06-13.05,1.06C240.5,224,240,216,237.6,216c-3.91,0-2.62,13.37-13.85,18.06v10.49s25.11,3.76,27.92.52S255.11,227.81,251.87,225.76Z"/><path class="cls-13" d="M141.24,233.48s14.91,22.42-.76,23.32c0,0,0,7.21,1.08,9.19L127.09,265l.6-7.55s-5.22-10.59-6.12-16.36.9-10.8,7-12.6S140.16,227.54,141.24,233.48Z"/><path class="cls-14" d="M131.49,242.83s-1.35-6,3.17-7.21a46.55,46.55,0,0,1,7-1.45s5.27-16.52-3.89-14.94-21.57,11.26-22.18,17.12,7.26,19.88,9.21,21.47,6.22.07,6.22.07l.33-7.82s-3.91-.89-5-4.31S127.33,239.65,131.49,242.83Z"/><path class="cls-15" d="M140.82,240.4a1.4,1.4,0,1,1-2-1A1.61,1.61,0,0,1,140.82,240.4Z"/><path class="cls-11" d="M145.29,246.33c-.14.09-4.79,1.86-4.93,1.81s1.91,4.37,4.6,3.16a1.66,1.66,0,0,0,1-1.62Z"/><path class="cls-16" d="M161.06,468,160,472.07s1.11,4.39,4.86,4,10.53-3.35,10.53-3.35l.32-9.73Z"/><path class="cls-16" d="M130.18,468l-1.11,4.07s1.11,4.39,4.86,4,10.53-3.35,10.53-3.35l.32-9.73Z"/><path class="cls-9" d="M125.78,329.47s-8,20.47-5.14,33.69c1.38,6.48,9.42,43.41,10,48.26,0,0-1.71,52.28-2.85,59,0,0,16.56,1.58,18.56,0s3.71-56.12,3.14-60.12.11-48.83.11-48.83l-3.54-34.55Z"/><path class="cls-17" d="M136.51,330.9s-3,17.1,0,27.16,19.12,28.17,23.34,47.29c0,0-1.41,64.38,0,65s17.71-3.62,17.71-3.62,4.22-57,3.82-62.38-12.88-50.5-16.1-57.75a78.09,78.09,0,0,1-4.71-16.22S139.12,328,136.51,330.9Z"/><path class="cls-18" d="M160,472.07s-.24,10.09,1,10.81,7.8.72,7.8.72l1.68-3s2.52,3.84,4.21,3.84,16.09-1.92,17.77-3-1.32-10-6-8.53-6.48,2.17-6.48,2.17l-1.44-4.68S168,475,164.76,474A21.74,21.74,0,0,1,160,472.07Z"/><path class="cls-18" d="M129.09,472.71s-.21,8.89.84,9.52,5.24.61,5.24.61l1.48-2.64s2.15,2.72,3.63,2.72,15.88-1,17.36-2-1.16-8.78-5.29-7.51-5.71,1.91-5.71,1.91l-1.27-4.12s-9,3.14-11.89,2.29A16.72,16.72,0,0,0,129.09,472.71Z"/><path class="cls-19" d="M124.19,262.85c.13-.28,22.21,3.07,22.21,3.07l-4.61,2.46H124.7S122,267.25,124.19,262.85Z"/><path class="cls-13" d="M195.83,235.62c-.09-.68-4-9.65-3.15-11.45.08-.17,4.14,1.33,4.77,2.91,0,0,2.37-6,4.22-6.68s7.34,4,7.77,6.16-8.79,11.87-8.79,11.87Z"/><path class="cls-20" d="M187.46,269.32s-30.82,15.13-33.27,16.92l0,.12c.43,1.67,5.35,20.89,1.6,29.79.32,5.55,4.74,14.22,4.74,14.22a79.44,79.44,0,0,1-10.68,2.48,24.07,24.07,0,0,1-5,.29c-5.86-.42-10,.61-12.75.48a27.78,27.78,0,0,1-8.79-1.78s-5.32-36.4-6.93-42.58l6.93,42.58,1.42.5-3,10.69c-.22-.11-5.67-11.93-9.42-19.46-3.4-12.87-4.31-23.45-4.85-26.43-1.33-7.26,1.33-17.42,1.33-17.42,4.91-6.88,15.88-11.34,15.88-11.34l21.7-2.46L178,261.28l16.55-26.69,7,4.46Z"/><path class="cls-19" d="M160.57,330.37a79.44,79.44,0,0,1-10.68,2.48L148.28,330s2.51-10.66.41-17.85,4.49-25.81,4.49-25.81h1c.43,1.67,5.35,20.89,1.6,29.79C156.15,321.7,160.57,330.37,160.57,330.37Z"/><polygon class="cls-19" points="116.41 289.26 123.34 331.84 118.49 310.04 116.09 297.75 116.41 289.26"/><path class="cls-2" d="M484.42,167a.43.43,0,0,1-.31-.14.41.41,0,0,1,0-.58c1-.9,2.06-1.8,3.08-2.71a.41.41,0,0,1,.55.62c-1,.91-2,1.81-3.09,2.71A.39.39,0,0,1,484.42,167Zm6.12-5.47a.39.39,0,0,1-.3-.13.42.42,0,0,1,0-.58c1-.93,2-1.86,3-2.8a.4.4,0,0,1,.58,0,.41.41,0,0,1,0,.58c-1,.94-2,1.88-3,2.81A.43.43,0,0,1,490.54,161.49Zm5.94-5.66a.39.39,0,0,1-.29-.13.41.41,0,0,1,0-.58c1-1,1.94-1.92,2.9-2.89a.4.4,0,0,1,.58,0,.41.41,0,0,1,0,.58c-1,1-1.92,1.95-2.9,2.91A.4.4,0,0,1,496.48,155.83Zm5.75-5.86a.38.38,0,0,1-.28-.11.41.41,0,0,1,0-.58c.94-1,1.87-2,2.79-3a.41.41,0,1,1,.61.55c-.93,1-1.86,2-2.81,3A.42.42,0,0,1,502.23,150Zm5.56-6a.4.4,0,0,1-.31-.68q1.36-1.53,2.7-3.09a.4.4,0,0,1,.57,0,.4.4,0,0,1,.05.58c-.89,1-1.79,2.07-2.71,3.09A.37.37,0,0,1,507.79,143.93Zm5.34-6.23a.43.43,0,0,1-.26-.09.41.41,0,0,1,0-.58l.06-.07-2.83-.07a.4.4,0,0,1-.4-.42.41.41,0,0,1,.42-.4c1.16,0,2.32.06,3.48.08.62-.76,1.24-1.53,1.85-2.3a.42.42,0,0,1,.58-.06.41.41,0,0,1,.07.58l-1.57,1.94a.39.39,0,0,1,.09.26.41.41,0,0,1-.41.41h-.23l-.48.59A.43.43,0,0,1,513.13,137.7Zm5.13-.71a.42.42,0,0,1,0-.83c1.37,0,2.73,0,4.1-.06a.4.4,0,0,1,.42.4.43.43,0,0,1-.4.42c-1.37,0-2.74.06-4.11.07Zm8.21-.21a.42.42,0,0,1-.41-.4.41.41,0,0,1,.39-.43c1.36,0,2.73-.13,4.09-.21a.4.4,0,0,1,.44.38.42.42,0,0,1-.39.44c-1.37.08-2.73.15-4.1.21Zm-20.51,0h0c-1.37-.07-2.74-.15-4.1-.24a.41.41,0,0,1-.39-.43.42.42,0,0,1,.44-.39c1.36.09,2.72.17,4.09.24a.41.41,0,0,1,0,.82Zm28.7-.47a.42.42,0,0,1-.41-.38.41.41,0,0,1,.38-.44c1.36-.11,2.72-.23,4.07-.37a.41.41,0,0,1,.09.82c-1.37.13-2.73.26-4.1.37Zm-36.89-.08h0c-1.37-.11-2.73-.24-4.1-.38a.42.42,0,0,1-.36-.45.41.41,0,0,1,.45-.37l4.08.39a.41.41,0,0,1,.37.44A.41.41,0,0,1,497.77,136.19Zm45.05-.73a.4.4,0,0,1-.4-.36.41.41,0,0,1,.36-.46c1.35-.16,2.71-.33,4.06-.51a.41.41,0,1,1,.11.81c-1.36.19-2.72.36-4.08.52Zm-53.21-.12h-.05c-1.49-.2-2.82-.41-4.08-.66a.41.41,0,0,1-.33-.48.41.41,0,0,1,.48-.32c1.25.24,2.57.45,4,.64a.41.41,0,0,1,.36.46A.42.42,0,0,1,489.61,135.34Zm61.35-1a.41.41,0,0,1-.07-.81c1.35-.21,2.7-.44,4.05-.67a.4.4,0,0,1,.47.33.41.41,0,0,1-.33.48c-1.35.23-2.71.46-4.06.67Zm-69.4-.6-.11,0a31.38,31.38,0,0,1-3.92-1.38.42.42,0,0,1-.21-.54.42.42,0,0,1,.54-.22,28.68,28.68,0,0,0,3.81,1.35.41.41,0,0,1-.11.81Zm77.48-.81a.42.42,0,0,1-.4-.33.4.4,0,0,1,.32-.48c1.34-.26,2.68-.54,4-.82a.42.42,0,0,1,.49.31.41.41,0,0,1-.31.49c-1.34.29-2.69.56-4,.82Zm-40.78-1.64a.38.38,0,0,1-.25-.09.41.41,0,0,1-.07-.58c.83-1.08,1.66-2.17,2.47-3.26a.41.41,0,0,1,.57-.09.43.43,0,0,1,.09.58c-.82,1.1-1.65,2.19-2.48,3.28A.45.45,0,0,1,518.26,131.3Zm48.81-.08a.41.41,0,0,1-.1-.81l1-.22a.41.41,0,1,1,.19.79l-1,.23Zm-93-.83a.43.43,0,0,1-.24-.08,13.62,13.62,0,0,1-3-2.92.41.41,0,0,1,.65-.49,12.7,12.7,0,0,0,2.86,2.74.41.41,0,0,1,.09.57A.39.39,0,0,1,474.12,130.39Zm49-5.68a.42.42,0,0,1-.33-.65c.85-1.22,1.58-2.33,2.22-3.41a.41.41,0,1,1,.7.41c-.64,1.1-1.38,2.24-2.25,3.47A.41.41,0,0,1,523.15,124.71Zm-53.76-.82a.4.4,0,0,1-.39-.3,11.94,11.94,0,0,1-.42-3.17c0-.35,0-.7.05-1a.42.42,0,0,1,.44-.38.41.41,0,0,1,.37.44c0,.33,0,.65,0,1a11.05,11.05,0,0,0,.39,3,.42.42,0,0,1-.29.51Zm57.87-6.27a.29.29,0,0,1-.16,0,.4.4,0,0,1-.22-.53,18.34,18.34,0,0,0,1.19-3.83.42.42,0,0,1,.48-.33.4.4,0,0,1,.32.48,19.17,19.17,0,0,1-1.24,4A.4.4,0,0,1,527.26,117.62ZM470,115.84a.35.35,0,0,1-.14,0,.41.41,0,0,1-.24-.53,17.84,17.84,0,0,1,2-3.7.41.41,0,0,1,.57-.11.41.41,0,0,1,.11.57,17.23,17.23,0,0,0-1.87,3.54A.42.42,0,0,1,470,115.84Zm58.62-6.22a.41.41,0,0,1-.41-.34,9.71,9.71,0,0,0-1.27-3.5l-.1-.17a.41.41,0,0,1,.69-.43l.11.18a10.44,10.44,0,0,1,1.38,3.79.41.41,0,0,1-.34.47Zm-54.08-.55a.42.42,0,0,1-.29-.12.41.41,0,0,1,0-.58,27,27,0,0,1,3.16-2.7.4.4,0,0,1,.57.08.41.41,0,0,1-.08.58,25.47,25.47,0,0,0-3.07,2.62A.4.4,0,0,1,474.49,109.07Zm6.58-4.86a.41.41,0,0,1-.2-.77l.43-.24c1.05-.55,2.16-1.07,3.31-1.55a.42.42,0,0,1,.54.23.4.4,0,0,1-.22.53c-1.13.47-2.22,1-3.24,1.52l-.43.22A.35.35,0,0,1,481.07,104.21Zm43.33-1.42a.43.43,0,0,1-.26-.09,16.28,16.28,0,0,0-3.43-2,.41.41,0,0,1-.21-.54.41.41,0,0,1,.54-.21,17,17,0,0,1,3.61,2.14.41.41,0,0,1,.07.58A.42.42,0,0,1,524.4,102.79Zm-35.77-1.73a.41.41,0,0,1-.39-.29.4.4,0,0,1,.27-.51c1.27-.4,2.61-.76,4-1.07a.41.41,0,0,1,.18.8c-1.35.31-2.67.66-3.93,1.05ZM517,99.37h-.1a35.35,35.35,0,0,0-4-.75.4.4,0,0,1-.35-.45.41.41,0,0,1,.46-.36,32.81,32.81,0,0,1,4.08.77.4.4,0,0,1,.29.5A.4.4,0,0,1,517,99.37Zm-20.38-.16a.41.41,0,0,1-.07-.81c1.31-.22,2.68-.4,4.09-.56a.41.41,0,0,1,.09.82c-1.39.15-2.75.34-4,.55Zm8.15-.89a.4.4,0,0,1-.4-.39.41.41,0,0,1,.39-.43c1.41-.06,2.77-.07,4.13,0a.42.42,0,0,1,.4.43.41.41,0,0,1-.41.39h0c-1.33,0-2.67,0-4.07,0Z"/><polygon class="cls-21" points="602.66 118.39 572.1 121.76 573.73 132.87 602.66 118.39"/><polygon class="cls-22" points="602.66 118.39 576.8 124.87 573.73 132.87 602.66 118.39"/><polygon class="cls-3" points="602.66 118.39 565.15 115.04 572.1 121.76 602.66 118.39"/><polygon class="cls-3" points="602.66 118.39 576.8 124.87 585.69 132.29 602.66 118.39"/><path class="cls-9" d="M456.72,59.51c-6.17,0-8.6,2.55-8.6,8,0,.5-1,.5-1,0,0-5.48-2-8-8.6-8-.5,0-.5-1,0-1,6.85,0,8.6-3.17,8.6-8,0-.5,1-.5,1,0,0,5.77,2.33,8,8.6,8C457.22,58.55,457.22,59.51,456.72,59.51Z"/><path class="cls-13" d="M447.32,204.55l-2.45,3.1-.58.73-4.4-.61-1.44-.19-1.21-2-.32-.54-2.1-3.5a11.18,11.18,0,0,1-9.72-1.48h0a5.14,5.14,0,0,1-2-2.76l-.09-.37a58.22,58.22,0,0,1-1.76-7.7,34.54,34.54,0,0,1-.17-7.05c.41-5.44,8.68-6.85,14.93-5.25s8.06,18.36,8.06,18.36l2.09,6,.91,2.6,0,.09Z"/><path class="cls-11" d="M426.56,195.87a4.12,4.12,0,0,1-1.44,4.2l0,0h0a5.14,5.14,0,0,1-2-2.76A20.24,20.24,0,0,0,426.56,195.87Z"/><path class="cls-13" d="M492.57,234.51s12.21,17,12.56,17.91-1.41,4.6-.07,6.17,7.47,5.19,9.31,3.53c.94-.85.27-2.27.27-2.27s-3.53-1.2-3.57-3.37.36-3.82-.36-5.67c-1.25-3.25-1.15-1.68-2.75-4.22-4.89-7.73-9.72-16.91-9.72-16.91Z"/><path class="cls-11" d="M441,218.45,483,225.26l10.71,10.83,5.19-5.29s-5.65-10.57-8-14.12-40.15-12.81-44.36-12.75-7.93,4.35-8.05,7.46S441,218.45,441,218.45Z"/><path class="cls-22" d="M434.16,207.12a22.9,22.9,0,0,1,13.68-3.19s8.32,3.38,12,8.57,11.91,32,20.73,36.3c0,0-11,9.28-19.38,11.25a13.94,13.94,0,0,1-3.81.28s-2.48-10.41-12.11-20.59c-6.47.34-9.05-1.5-11.09-4.59C432.55,226.31,435.23,218,434.16,207.12Z"/><path class="cls-13" d="M394.83,201.91c-3.08-3.07-19.58-22.65-22.28-23.51-3.2-1-6,1.33-9.33,1.6s-5.39-2.17-7.35-2.08-1.26,2,1.66,3.36c1.39.63,3,2.05,5.05,2.22a64.52,64.52,0,0,1,7.45.7c2.22.72,18.7,22.78,18.7,22.78Z"/><path class="cls-22" d="M439.49,204.92l-39,1.67-6.91-6.52-6.71,6.18s5.36,6.3,8.08,9.56,40.7,5.76,44.87,5.21,6.92-5.41,6.69-8.52a12.56,12.56,0,0,0-1.18-3.95A6.15,6.15,0,0,0,439.49,204.92Z"/><path class="cls-11" d="M457.36,260.33S461.86,316.62,468,326s47,39.21,47,39.21l5.08-6.3s-17.56-28.59-26.13-33.31c-4.21-2.32-10.29-5.87-10.29-5.87s4.34-52.5,1.29-60.34-4.37-10.6-4.37-10.6Z"/><path class="cls-23" d="M457.36,260.33s38.93,46.08,51.54,52,48.5,11.9,48.5,11.9l1.06-5.78s-17-12.35-27.6-16.32a75.85,75.85,0,0,0-13.75-2.41s-12.31-28.29-20.95-37.2a118.59,118.59,0,0,0-15.61-13.75Z"/><path class="cls-14" d="M425,191.17c0,.76-.45,1.37-1,1.37s-1-.61-1-1.37.45-1.37,1-1.37S425,190.41,425,191.17Z"/><path class="cls-14" d="M418.78,176.3c-1.23,6.37-2.12,13.7,10.07,16s12.91,3.16,14.86,7.73c1.39,3.25.86,13.69,6.69,21.46s11.48,2.12,17.66,9.89c3.18,4.42.71,17,7.77,21.38s21.73-1.06,32.86-10.78,17.24-27.68,8.51-33.64c-13.48-9.2-26.62-2.83-30.94-7.16s1.57-12.06-6.9-15.08c-9-3.21-19.16,2.63-25.07-3.29S442.21,168,431.6,168,418.78,176.3,418.78,176.3Z"/><path class="cls-24" d="M555.69,315.51l-.92,10s5.45-.18,6.66.84,4.16,10.63,6,11.65,5.73,1.94,4.72-.74-7.22-15.82-6.48-21.74l-7.22,1.21Z"/><path class="cls-24" d="M520.05,357.06l-5.45,8.43s4.92,2.36,5.51,3.82,1.91,12.75,3.08,14.51,4.18,4.38,4.52,1.54-.71-18.59.65-22.69L522,359.41Z"/><path class="cls-4" d="M197.83,33C190,33,187,36.26,187,43.18c0,.64-1.21.64-1.21,0,0-6.92-2.47-10.14-10.87-10.14-.63,0-.63-1.21,0-1.21,8.66,0,10.87-4,10.87-10.13,0-.63,1.21-.63,1.21,0,0,7.29,2.94,10.13,10.86,10.13C198.46,31.83,198.46,33,197.83,33Z"/></g></g></svg>